<?xml version="1.0" encoding="UTF-8"?>
<svg width="149px" height="149px" viewBox="0 0 149 149" version="1.1" xmlns="http://www.w3.org/2000/svg" xmlns:xlink="http://www.w3.org/1999/xlink">
    <!-- Generator: Sketch 58 (84663) - https://sketch.com -->
    <title>Group 6</title>
    <desc>Created with Sketch.</desc>
    <g id="Black-and-White" stroke="none" stroke-width="1" fill="none" fill-rule="evenodd">
        <g id="Desktop-HD" transform="translate(-310.000000, -1616.000000)">
            <g id="Group-8" transform="translate(78.000000, 1617.000000)">
                <g id="Group-6" transform="translate(233.000000, 0.000000)">
                    <circle id="Oval" stroke="#000000" stroke-width="2" fill="#FFFFFF" cx="73.5" cy="73.5" r="73.5"></circle>
                    <g id="beer" transform="translate(37.000000, 26.000000)" fill="#000000" fill-rule="nonzero">
                        <path d="M41.5,76 C40.672,76 40,76.672 40,77.5 C40,78.328 40.672,79 41.5,79 C42.328,79 43,78.328 43,77.5 C43,76.672 42.328,76 41.5,76 Z" id="Path"></path>
                        <path d="M18.5,33 C17.67155,33 17,33.7638483 17,34.7061611 L17,67.2938389 C17,68.2361517 17.67155,69 18.5,69 C19.32845,69 20,68.2361517 20,67.2938389 L20,34.7061611 C20,33.7638483 19.32845,33 18.5,33 Z" id="Path"></path>
                        <path d="M30.5,33 C29.67155,33 29,33.7638483 29,34.7061611 L29,67.2938389 C29,68.2361517 29.67155,69 30.5,69 C31.32845,69 32,68.2361517 32,67.2938389 L32,34.7061611 C32,33.7638483 31.32845,33 30.5,33 Z" id="Path"></path>
                        <path d="M64.723356,27.0429688 L56.446712,27.0429688 L56.446712,21.9604023 C59.0414399,19.9866016 60.2746599,16.6504062 59.5433356,13.3563711 C58.8591882,10.2674258 56.3463991,7.74655078 53.2914898,7.08357812 C51.6674467,6.73000391 50.0318163,6.85514062 48.5415238,7.43009766 C47.047093,5.03939844 44.4227347,3.52734375 41.5487528,3.52734375 C40.4655057,3.52734375 39.4069229,3.74049609 38.428127,4.15067578 C35.6574376,1.49861719 32.0046236,0 28.223356,0 C23.2216145,0 18.556898,2.58554297 15.803424,6.81600391 C7.15102041,6.33023828 0,13.2957344 0,21.8846484 L0,42.0408984 C0,44.8194375 2.26482086,47.0799609 5.04875283,47.0799609 C5.65940363,47.0799609 6.24456236,46.9672539 6.78684807,46.7619961 L6.78684807,77.6015625 C6.78684807,82.2324609 10.4997506,86 15.0634921,86 L48.170068,86 C52.7338095,86 56.446712,82.2324609 56.446712,77.6015625 L56.446712,72.5625 L64.723356,72.5625 C69.2870975,72.5625 73,68.7949609 73,64.1640625 L73,35.4414062 C73,30.8105078 69.2870975,27.0429688 64.723356,27.0429688 Z M53.1360544,75.921875 L48.0856463,75.921875 C47.1714082,75.921875 46.4303175,76.6738711 46.4303175,77.6015625 C46.4303175,78.5292539 47.1714082,79.2644531 48.0856463,79.2644531 L52.8513379,79.2644531 C52.1680181,81.2194414 50.3279546,82.640625 48.170068,82.640625 L15.0634921,82.640625 C12.9056054,82.640625 11.065542,81.2362383 10.3822222,79.28125 L34.8463265,79.28125 C35.7605646,79.28125 36.5016553,78.5292539 36.5016553,77.6015625 C36.5016553,76.6738711 35.7605646,75.921875 34.8463265,75.921875 L10.0975057,75.921875 L10.0975057,42.0039453 L10.0975057,30.1513984 C13.8158707,29.5818164 17.0356508,27.2055625 18.72839,23.6837617 C19.0736916,23.6837617 19.377941,23.8050352 19.6072041,24.0333047 C21.4754082,25.8974219 23.9474762,26.9238789 26.5680272,26.9238789 C29.2840907,26.9238789 31.8195578,25.8329219 33.708288,23.8508906 C33.809263,23.7447344 33.9521179,23.6837617 34.0997732,23.6837617 C36.6766236,23.6837617 38.3627415,24.2422578 39.1116122,25.3434609 C39.7288844,26.251332 39.7283878,27.5127773 39.7278912,28.5264687 L39.7278912,35.3223164 C39.7278912,37.511957 41.1119116,39.3790977 43.0385488,40.0724727 L43.0385488,67.4043477 C43.0385488,68.3320391 43.7796395,69.0840352 44.6938776,69.0840352 C45.6081156,69.0840352 46.3492063,68.3320391 46.3492063,67.4043477 L46.3492063,40.0723047 C48.2758435,39.3789297 49.6598639,37.511957 49.6598639,35.3221484 L49.6598639,23.4863984 C50.8194218,23.7212187 52.0028163,23.7227305 53.1360544,23.4875742 L53.1360544,75.921875 Z M48.7548957,19.6434414 C48.2417438,19.3785547 47.6299342,19.4032461 47.1389637,19.7087812 C46.6481587,20.0141484 46.3490408,20.5563516 46.3490408,21.1405469 L46.3490408,35.3221484 C46.3490408,36.2483281 45.6064603,37.0018359 44.693712,37.0018359 C43.7809637,37.0018359 43.0383832,36.2483281 43.0383832,35.3221484 L43.0383832,28.5274766 C43.0388798,27.2045547 43.0397075,25.2052227 41.836449,23.4355039 C40.4328957,21.371 37.8298912,20.3242187 34.0997732,20.3242187 C33.0585714,20.3242187 32.0478277,20.7590898 31.327263,21.5166289 C30.0688821,22.8371992 28.3786259,23.5643359 26.5680272,23.5643359 C24.8211587,23.5643359 23.1734444,22.8801992 21.9273129,21.6365586 C21.0776327,20.7901641 19.9415805,20.3242187 18.72839,20.3242187 C17.4738163,20.3242187 16.3078027,21.0627773 15.757737,22.2058047 C14.3702404,25.0888203 11.5614785,26.896668 8.42794104,26.9238789 C7.51933107,26.9317734 6.78668254,27.681418 6.78668254,28.6035664 L6.78668254,41.9612812 C6.72841497,42.9504492 5.97043991,43.7205859 5.04875283,43.7205859 C4.10670522,43.7205859 3.3106576,42.9512891 3.3106576,42.0408984 L3.3106576,21.8846484 C3.3106576,15.4017266 8.53851701,10.1516953 14.9653311,10.1516953 C15.4647438,10.1516953 15.966805,10.1839453 16.4685351,10.2492852 C17.1381156,10.3364609 17.7924671,10.0022031 18.1227052,9.40507422 C20.1845828,5.676 24.054907,3.359375 28.223356,3.359375 C31.4893197,3.359375 34.6380862,4.80642578 36.8620204,7.32965234 C37.4009955,7.94139453 38.2968594,8.06837891 38.9806757,7.62947656 C39.7376576,7.14354297 40.6257415,6.88671875 41.5487528,6.88671875 C43.6559864,6.88671875 45.5394195,8.24071484 46.2354853,10.255668 C46.4048254,10.7461367 46.7885306,11.1296094 47.2745351,11.2938828 C47.7603741,11.4581562 48.2940522,11.3849219 48.7194717,11.0953437 C49.8477438,10.3277266 51.2246463,10.0695586 52.5977415,10.368543 C54.3854966,10.7565508 55.9133651,12.2880898 56.3132925,14.0939219 C57.2555057,18.3374844 52.9687007,21.8184687 48.7548957,19.6434414 Z M56.446712,37.1210937 L63.0680272,37.1210937 L63.0680272,62.484375 L56.446712,62.484375 L56.446712,37.1210937 Z M69.6893424,64.1640625 C69.6893424,66.9426016 67.4616009,69.203125 64.723356,69.203125 L56.446712,69.203125 L56.446712,65.84375 L64.723356,65.84375 C65.6375941,65.84375 66.3786848,65.0917539 66.3786848,64.1640625 L66.3786848,35.4414062 C66.3786848,34.5137148 65.6375941,33.7617188 64.723356,33.7617188 L56.446712,33.7617188 L56.446712,30.4023438 L64.723356,30.4023438 C67.4616009,30.4023438 69.6893424,32.6628672 69.6893424,35.4414062 L69.6893424,64.1640625 Z" id="Shape"></path>
                    </g>
                </g>
            </g>
        </g>
    </g>
</svg>