<?xml version="1.0" encoding="UTF-8"?>
<svg width="149px" height="149px" viewBox="0 0 149 149" version="1.1" xmlns="http://www.w3.org/2000/svg" xmlns:xlink="http://www.w3.org/1999/xlink">
    <!-- Generator: Sketch 58 (84663) - https://sketch.com -->
    <title>Group 5</title>
    <desc>Created with Sketch.</desc>
    <g id="Black-and-White" stroke="none" stroke-width="1" fill="none" fill-rule="evenodd">
        <g id="Desktop-HD" transform="translate(-775.000000, -1616.000000)">
            <g id="Group-8" transform="translate(78.000000, 1617.000000)">
                <g id="Group-5" transform="translate(698.000000, 0.000000)">
                    <circle id="Oval" stroke="#000000" stroke-width="2" fill="#FFFFFF" cx="73.5" cy="73.5" r="73.5"></circle>
                    <g id="bike" transform="translate(23.000000, 31.000000)" fill-rule="nonzero">
                        <path d="M98.3622058,38.5167866 C93.4514439,29.8049097 82.9582141,25.9249356 73.5608262,29.3462245 L62.937528,6.33070022 L72.8870259,6.33070022 C74.2750503,6.33070022 75.4004245,7.45604977 75.4004245,8.84404373 C75.4004245,10.2320377 74.2750503,11.3573872 72.8870259,11.3573872 L72.0492264,11.3573872 C71.1238768,11.3573872 70.3736273,12.1076203 70.3736273,13.0329496 C70.3736273,13.9582789 71.1238768,14.7085119 72.0492264,14.7085119 L72.8870259,14.7085119 C76.1259589,14.7085119 78.7516226,12.0829057 78.7516226,8.84404373 C78.7516226,5.60518173 76.1259589,2.97957554 72.8870259,2.97957554 L60.3200328,2.97957554 C59.3946833,2.97957554 58.6444338,3.72980858 58.6444338,4.65513788 C58.6444338,4.89746608 58.6970057,5.1370715 58.7985889,5.3571985 L63.1149321,14.7085119 L36.7493807,14.7085119 L34.445432,9.68182489 L35.8847716,9.68182489 C38.2741759,9.68664214 40.2149385,7.75346209 40.2197558,5.3641102 C40.2241543,3.15173957 38.5586088,1.29249372 36.3589661,1.05435442 L27.1532248,0.0289102671 C24.4955152,-0.260752572 22.106111,1.65902298 21.8166512,4.31688373 C21.526982,6.97453505 23.4467997,9.36388694 26.1047187,9.65334034 C26.2770959,9.67219041 26.4505204,9.68161545 26.623945,9.68182489 L30.7593235,9.68182489 L33.5860591,15.8495699 L27.1601367,29.4216248 C16.7691185,25.5230101 5.18486427,30.7859514 1.28616413,41.1767418 C-2.61253601,51.5675322 2.65052067,63.1515324 13.0415389,67.0501471 C23.4325571,70.9487618 35.0168113,65.6858205 38.9155114,55.2950301 C39.5666911,53.5595664 39.97449,51.742419 40.1275979,49.895321 L43.8021866,49.895321 C44.707429,53.4749505 48.3432696,55.6429187 51.9227681,54.7376962 C55.5024761,53.8324736 57.6704918,50.1969222 56.7652494,46.6172927 C56.4169343,45.2399805 55.6390374,44.0096988 54.5442428,43.1042668 L65.522768,19.926213 L70.5160532,30.7469946 C60.680915,36.290802 57.2021619,48.7576142 62.7460909,58.5923273 C68.2900198,68.4272499 80.7571053,71.9059268 90.592034,66.3621193 C100.427172,60.8185213 103.905925,48.3517092 98.3622058,38.5167866 Z M26.6237355,6.33049077 C25.8008069,6.33049077 25.1332901,5.66382641 25.1324523,4.84091586 C25.1332901,4.02051865 25.7966179,3.35511095 26.6170331,3.35134094 C26.6740035,3.35134094 26.7292982,3.35134094 26.784593,3.35971875 L35.9903343,4.38348734 C36.5261071,4.44632093 36.9096099,4.93181511 36.8465654,5.46757617 C36.7891762,5.95642148 36.3769788,6.32630187 35.8847716,6.33049077 L26.6237355,6.33049077 Z M28.7467195,33.8918157 C33.2649724,36.6108345 36.2397891,41.2980106 36.7761903,46.5439869 L22.7531016,46.5439869 L28.7467195,33.8918157 Z M20.1056551,64.9752648 C10.8515309,65.0055422 3.32515875,57.5285547 3.29448688,48.2748428 C3.26420883,39.0211309 10.7413602,31.4947143 19.995275,31.4640425 C21.9467196,31.4576425 23.884131,31.7921266 25.7205876,32.4525076 L18.5976159,47.5024085 C18.2015462,48.3387236 18.5584488,49.3377776 19.3947822,49.7338387 C19.6170085,49.8391897 19.8597609,49.8940643 20.1056551,49.8951116 L36.7761903,49.8951116 C35.9067638,58.451999 28.7067146,64.9651192 20.1056551,64.9752648 Z M43.8019772,46.5439869 L40.1273884,46.5439869 C39.5740218,40.0042671 35.8636171,34.1460823 30.1877347,30.85067 L35.4089014,19.8271454 L46.0539823,43.0504394 C44.9508098,43.945818 44.1618121,45.1696069 43.8019772,46.5439869 Z M50.2664384,51.5706739 C48.4155298,51.5706739 46.9152403,50.0704173 46.9152403,48.2195492 C46.9152403,46.3686812 48.4155298,44.8684245 50.2664384,44.8684245 C52.117347,44.8684245 53.6176366,46.3686812 53.6176366,48.2195492 C53.6176366,50.0704173 52.117347,51.5706739 50.2664384,51.5706739 Z M51.5264889,41.6463182 C51.1115687,41.5631684 50.6895272,41.5200227 50.2664384,41.5172999 C49.8726726,41.5229549 49.480373,41.5627495 49.0935191,41.6362648 L38.285905,18.0594271 L62.6993835,18.0594271 L51.5264889,41.6463182 Z M80.5662964,65.1024522 C71.2771941,65.1406344 63.7156344,57.6416551 63.6771602,48.3527564 C63.6525899,42.3846128 66.7926626,36.8502304 71.9285832,33.8099226 L78.9057778,48.9251704 C79.276504,49.773005 80.2642697,50.1600599 81.1123323,49.7893417 C81.9601854,49.4186235 82.3472488,48.4308795 81.9765225,47.583045 C81.9677256,47.5627288 81.9585098,47.542622 81.9486657,47.5229342 L74.9681199,32.3993085 C76.7228911,31.7850055 78.5681445,31.4689525 80.4272217,31.4641985 C89.7163241,31.4260162 97.2778838,38.9249955 97.316361,48.2138942 C97.3547519,57.5025835 89.8553988,65.0639774 80.5662964,65.1024522 Z" id="Shape" fill="#020202"></path>
                        <polygon id="Path" fill="#000000" points="80 70 20 70 0 70 0 73 100 73 100 70"></polygon>
                        <path d="M23.3571429,83 L3.64285714,83 C2.73558929,83 2,83.671625 2,84.5 C2,85.328375 2.73558929,86 3.64285714,86 L23.3571429,86 C24.2644107,86 25,85.328375 25,84.5 C25,83.671625 24.2644107,83 23.3571429,83 Z" id="Path" fill="#000000"></path>
                        <path d="M61.375,83 L38.625,83 C37.7275937,83 37,83.671625 37,84.5 C37,85.328375 37.7275937,86 38.625,86 L61.375,86 C62.2724063,86 63,85.328375 63,84.5 C63,83.671625 62.2724063,83 61.375,83 Z" id="Path" fill="#000000"></path>
                        <path d="M96.3571429,83 L76.6428571,83 C75.7355893,83 75,83.671625 75,84.5 C75,85.328375 75.7355893,86 76.6428571,86 L96.3571429,86 C97.2644107,86 98,85.328375 98,84.5 C98,83.671625 97.2644107,83 96.3571429,83 Z" id="Path" fill="#000000"></path>
                        <path d="M21.2529853,59.3820111 C20.2387517,59.3829928 19.2295401,59.273692 18.2572295,59.057381 C17.3344844,58.8463061 16.3582436,59.2357312 16.0765726,59.9272062 C15.7949017,60.6186813 16.3145737,61.3502442 17.2373188,61.5613191 C17.2453978,61.563119 17.2534767,61.5649189 17.261774,61.5667187 C18.5572418,61.8550242 19.9018383,62.0009768 21.2532036,62 C22.2178719,62 23,61.4138939 23,60.6910031 C23,59.9681122 22.2176536,59.3820111 21.2529853,59.3820111 Z" id="Path" fill="#000000"></path>
                        <path d="M12.4880289,56.9531274 C10.5144116,54.9519507 9.40553234,52.2023882 9.41492239,49.3341682 C9.41449557,48.3018046 9.5576938,47.2749961 9.84003546,46.285518 C10.1087189,45.3440361 9.59354671,44.3538914 8.68932779,44.0741356 C7.78510886,43.7943797 6.83415311,44.3307821 6.5654697,45.272264 C5.12495101,50.3283126 6.48437383,55.7994399 10.0995422,59.493373 C10.4185905,59.8180142 10.8469047,60 11.2929319,60 C12.2357781,59.9997778 13.0002134,59.2038401 13,58.2221392 C13,57.7448432 12.8154002,57.2875457 12.4880289,56.9531274 Z" id="Path" fill="#000000"></path>
                        <path d="M86.0112065,37.0770419 C84.7433207,36.5472606 83.3910845,36.1893938 82.0009453,36.0155564 C81.0421984,35.8957546 80.1542183,36.4809178 80.0177239,37.3224143 C79.8812296,38.1639108 80.5479267,38.943295 81.5066736,39.0630967 C82.5469227,39.1923211 83.5586899,39.4594231 84.5073586,39.8553649 C84.7420062,39.9520909 84.9983439,40.0013192 85.2575298,40 C86.2254785,39.9949734 87.0056654,39.3023156 87,38.4525503 C86.9960253,37.8662333 86.6126142,37.3327984 86.0112065,37.0770419 Z" id="Path" fill="#000000"></path>
                        <path d="M91.3475367,41.6698095 C90.7457108,40.942936 89.5878726,40.7827429 88.7613742,41.3121739 C87.9587083,41.8263387 87.7604134,42.8062237 88.311798,43.5326901 C89.6093912,45.1698349 90.3023819,47.1190203 90.2961345,49.1148184 C90.2965973,50.0603035 90.1418024,51.0009035 89.8370716,51.9075109 C89.5462238,52.7689303 90.1038556,53.674927 91.0828351,53.9316023 C91.2538268,53.9771972 91.43176,54.0004018 91.6103873,54 C92.42925,53.9995876 93.1504693,53.5261326 93.3837029,52.8356944 C94.669727,49.0350271 93.9205104,44.9259832 91.3475367,41.6698095 Z" id="Path" fill="#000000"></path>
                    </g>
                </g>
            </g>
        </g>
    </g>
</svg>