<?xml version="1.0" encoding="UTF-8"?>
<svg width="149px" height="149px" viewBox="0 0 149 149" version="1.1" xmlns="http://www.w3.org/2000/svg" xmlns:xlink="http://www.w3.org/1999/xlink">
    <!-- Generator: Sketch 58 (84663) - https://sketch.com -->
    <title>Group 3</title>
    <desc>Created with Sketch.</desc>
    <g id="Black-and-White" stroke="none" stroke-width="1" fill="none" fill-rule="evenodd">
        <g id="Desktop-HD" transform="translate(-1241.000000, -1616.000000)">
            <g id="Group-8" transform="translate(78.000000, 1617.000000)">
                <g id="Group-3" transform="translate(1164.000000, 0.000000)">
                    <circle id="Oval" stroke="#000000" stroke-width="2" fill="#FFFFFF" cx="73.5" cy="73.5" r="73.5"></circle>
                    <g id="climb" transform="translate(73.500000, 74.500000) rotate(-23.000000) translate(-73.500000, -74.500000) translate(29.000000, 30.000000)" fill="#000000" fill-rule="nonzero">
                        <path d="M86.3925781,0 L23.4667969,0 C22.4161797,0 21.4681211,0.630647945 21.0620586,1.59973899 C20.6558223,2.56883003 20.8710215,3.68689165 21.6078789,4.43591646 L29.2112949,12.1660471 C27.307877,13.5940441 26.0742188,15.8685833 26.0742188,18.4257669 L26.0742188,22.7479998 L20.3757852,24.1723464 C20.6891973,23.1811792 20.859375,22.1267386 20.859375,21.0331867 C20.859375,15.2822615 16.1806172,10.6035074 10.4296875,10.6035074 C4.67875781,10.6035074 0,15.2822615 0,21.0331867 C0,25.2292205 2.492,28.8519697 6.07268555,30.5055953 C5.52217187,31.5817644 5.21484375,32.7957791 5.21484375,34.0702859 L5.21484375,54.9296446 C5.21484375,54.9313829 5.21501758,54.9329474 5.21501758,54.9345118 C5.21501758,56.4680223 5.6725332,57.9838024 6.52881055,59.2685651 L15.6445312,72.9423962 L15.6445312,81.177671 C15.6445312,85.4908649 19.1535996,89 23.4667969,89 C27.7799941,89 31.2890625,85.4908649 31.2890625,81.177671 L31.2890625,70.5741637 C31.2890625,69.0248348 30.8348496,67.5245254 29.9750957,66.2352432 L27.6529258,62.7519042 L29.7103555,62.7519042 L37.8183945,74.9139533 C40.2198301,78.5132356 45.0833672,79.4738091 48.6645742,77.0829789 C52.2534297,74.6918011 53.2268672,69.8256604 50.8344707,66.2352432 L40.4047832,50.5907242 C38.9507109,48.4095306 36.5178125,47.1073851 33.8964844,47.1073851 L20.859375,47.1073851 L20.859375,40.1777323 L35.7950352,36.4444286 C39.2827227,35.5714644 41.71875,32.4507305 41.71875,28.8554462 L41.71875,18.5667414 L47.2916797,20.4244411 L52.3763262,45.0277071 C52.4460312,45.3638904 52.5861367,45.6861675 52.7603125,45.946388 L62.9963555,61.3004404 L68.1006445,76.6136433 C68.2833379,77.1615492 68.6426406,77.6333183 69.1224062,77.9549001 L84.9407656,88.5584075 C85.7362031,89.0915379 86.7657871,89.1487273 87.6201523,88.6929503 C88.4694766,88.2397808 89,87.3553439 89,86.3925107 L89,2.60741984 C89,1.16742878 87.8325703,0 86.3925781,0 Z M5.21484375,21.0331867 C5.21484375,18.1577241 7.55422266,15.818347 10.4296875,15.818347 C13.3051523,15.818347 15.6445313,18.1577241 15.6445313,21.0331867 C15.6445313,23.9086493 13.3051523,26.2480264 10.4296875,26.2480264 C7.55422266,26.2480264 5.21484375,23.9086493 5.21484375,21.0331867 Z M26.0742188,81.177671 C26.0742188,82.6154023 24.9045293,83.7850909 23.4667969,83.7850909 C22.0290645,83.7850909 20.859375,82.6154023 20.859375,81.177671 L20.859375,72.1528695 C20.859375,71.6381648 20.7069277,71.1349328 20.4213281,70.7066206 L15.1183535,62.7519042 L21.3855527,62.7519042 L25.6361719,69.1279148 C25.9226406,69.5577914 26.0742188,70.0578946 26.0742188,70.5741637 L26.0742188,81.177671 Z M36.5039062,28.8554462 C36.5039062,30.054164 35.6917812,31.0945246 34.5297402,31.3853388 L17.6197402,35.6121402 C16.458916,35.9024329 15.6445312,36.9454009 15.6445312,38.1418589 L15.6445312,49.714805 C15.6445312,51.154796 16.8119609,52.3222248 18.2519531,52.3222248 L33.8964844,52.3222248 C34.7701445,52.3222248 35.5810527,52.7562733 36.0658594,53.4833958 L46.4951992,69.1273933 C47.2927227,70.3243729 46.968707,71.9465357 45.7708574,72.74458 C44.5749199,73.5427981 42.9548418,73.2165229 42.156623,72.0204126 L33.2750488,58.6980616 C32.7916328,57.9726774 31.9774219,57.5368907 31.1056738,57.5368907 L13.0371094,57.5368907 C11.5929453,57.5368907 10.4296875,56.3583369 10.4296875,54.9294708 L10.4296875,34.0702859 C10.4296875,32.8715681 11.2418125,31.8312076 12.4038535,31.5403934 L29.3140273,27.3134181 C30.4746777,27.0232992 31.2890625,25.9803313 31.2890625,24.7838732 L31.2890625,18.4257669 C31.2890625,16.9880356 32.458752,15.818347 33.8964844,15.818347 C35.3342168,15.818347 36.5039062,16.9880356 36.5039062,18.4257669 L36.5039062,28.8554462 Z M83.7851562,81.5056844 L72.7660176,74.1192117 L68.9770859,62.7519042 L75.7890625,62.7519042 C77.2290547,62.7519042 78.3964844,61.5844754 78.3964844,60.1444843 C78.3964844,58.7044933 77.2290547,57.5370645 75.7890625,57.5370645 L66.7546934,57.5370645 L58.9927461,45.8940658 L71.3986855,41.7586979 C72.4633828,41.4037411 73.1816406,40.4075329 73.1816406,39.2851256 L73.1816406,28.8554462 C73.1816406,27.4154552 72.0142109,26.2480264 70.5742187,26.2480264 C69.1342266,26.2480264 67.9667969,27.4154552 67.9667969,28.8554462 L67.9667969,37.4056974 L56.8890781,41.0983254 L52.5030469,19.874797 L61.2952734,15.5506519 C62.5875117,14.9151368 63.1197734,13.3524232 62.4842578,12.0601859 C61.848916,10.7677748 60.2858535,10.2358612 58.9937891,10.8710286 L49.3503262,15.6137515 L38.1956016,11.895397 C37.2730957,11.285956 36.2153516,10.86564 35.0769512,10.6926811 L29.6888008,5.21483968 L83.7851562,5.21483968 L83.7851562,81.5056844 Z" id="Shape"></path>
                    </g>
                </g>
            </g>
        </g>
    </g>
</svg>