<?xml version="1.0" encoding="UTF-8"?>
<svg width="149px" height="149px" viewBox="0 0 149 149" version="1.1" xmlns="http://www.w3.org/2000/svg" xmlns:xlink="http://www.w3.org/1999/xlink">
    <!-- Generator: Sketch 58 (84663) - https://sketch.com -->
    <title>Group 2</title>
    <desc>Created with Sketch.</desc>
    <g id="Black-and-White" stroke="none" stroke-width="1" fill="none" fill-rule="evenodd">
        <g id="Desktop-HD" transform="translate(-543.000000, -1616.000000)">
            <g id="Group-8" transform="translate(78.000000, 1617.000000)">
                <g id="Group-2" transform="translate(466.000000, 0.000000)">
                    <circle id="Oval" stroke="#000000" stroke-width="2" fill="#FFFFFF" cx="73.5" cy="73.5" r="73.5"></circle>
                    <g id="friendship" transform="translate(26.000000, 26.000000)" fill="#000000" fill-rule="nonzero">
                        <path d="M78.117882,36.1053025 C77.3945457,35.8087051 76.5709971,36.1611169 76.2775185,36.8922283 C75.4856159,38.8666865 73.6104041,40.1426075 71.500108,40.1426075 C70.1238852,40.1426075 68.828096,39.5998934 67.8527221,38.6158075 C67.3607027,38.1182402 66.9807628,37.539142 66.7234509,36.8943238 C66.4312909,36.1628313 65.608119,35.8087051 64.8844059,36.10435 C64.1606929,36.3996139 63.8110803,37.2320676 64.103052,37.963941 C64.5033358,38.9666953 65.0927419,39.8658214 65.8560124,40.6375079 C67.365977,42.1610696 69.3704099,43 71.500108,43 C74.7664236,43 77.6695642,41.0240179 78.8960337,37.9662269 C79.189324,37.2351154 78.8408416,36.4018998 78.117882,36.1053025 Z" id="Path"></path>
                        <path d="M64.5,26 C63.6714,26 63,26.7010804 63,27.5658437 L63,28.4341563 C63,29.2989196 63.6714,30 64.5,30 C65.3286,30 66,29.2989196 66,28.4341563 L66,27.5658437 C66,26.7010804 65.3286,26 64.5,26 Z" id="Path"></path>
                        <path d="M80.5,26 C79.6714,26 79,26.7010804 79,27.5658437 L79,28.4341563 C79,29.2989196 79.6714,30 80.5,30 C81.3286,30 82,29.2989196 82,28.4341563 L82,27.5658437 C82,26.7010804 81.3286,26 80.5,26 Z" id="Path"></path>
                        <path d="M31.1178693,36.1051948 C30.3943342,35.8085928 29.5709622,36.1610101 29.2774793,36.892133 C28.4855653,38.866622 26.6103266,40.1425629 24.5,40.1425629 C23.1237576,40.1425629 21.8279498,39.5998404 20.8525619,38.6159295 C20.360347,38.1179735 19.9802133,37.5388662 19.7232745,36.8946094 C19.4312986,36.162915 18.6083033,35.8087833 17.8845798,36.1042423 C17.1608563,36.3995108 16.8110503,37.2319775 17.1030262,37.9636719 C17.502939,38.9660608 18.0921652,39.865201 18.8558235,40.6376615 C20.3659982,42.1610565 22.3704598,43 24.5,43 C27.7663628,43 30.6695451,41.023987 31.8960322,37.9661483 C32.1893267,37.2350254 31.8408393,36.4017968 31.1178693,36.1051948 Z" id="Path"></path>
                        <path d="M16.5,26 C15.6714,26 15,26.7010804 15,27.5658437 L15,28.4341563 C15,29.2989196 15.6714,30 16.5,30 C17.3286,30 18,29.2989196 18,28.4341563 L18,27.5658437 C18,26.7010804 17.3286,26 16.5,26 Z" id="Path"></path>
                        <path d="M32.5,26 C31.6714,26 31,26.7010804 31,27.5658437 L31,28.4341563 C31,29.2989196 31.6714,30 32.5,30 C33.3286,30 34,29.2989196 34,28.4341563 L34,27.5658437 C34,26.7010804 33.3286,26 32.5,26 Z" id="Path"></path>
                        <path d="M93.6083984,19.5564155 C94.3771191,19.5564155 95,18.9478487 95,18.1971984 L95,14.4258241 C95,9.0685152 90.5375977,4.71014029 85.052832,4.71014029 L83.1819629,4.71014029 L82.9548535,4.19726238 C81.8246875,1.64755234 79.2565332,0 76.4119141,0 L67.180957,0 C57.3569922,0 49.3645605,7.8062556 49.3645605,17.4016033 L49.3645605,45.1550041 C49.3645605,49.1782866 52.7157227,52.4512814 56.8346777,52.4512814 L64.7946387,52.4512814 L64.7946387,54.3704959 L34.7455078,54.3704959 L31.8454102,54.3704959 L31.8454102,51.7763848 C33.5158887,51.0088802 35.0666895,49.979681 36.4358398,48.7056416 C39.3437305,46.0000746 41.178418,42.4490747 41.6836621,38.5968722 C44.5063867,38.5941538 46.8017871,36.3503582 46.8017871,33.5925973 L46.8017871,31.8683851 C46.8017871,30.6481707 46.3512793,29.5294444 45.605752,28.6600891 L48.8084766,16.2792525 C48.9968066,15.551437 48.5453711,14.8123854 47.8000293,14.628438 C47.0559863,14.4452156 46.2982129,14.8854207 46.1100684,15.6132361 L43.1452148,27.0743358 C42.7258789,26.9516439 42.284834,26.8791523 41.8282031,26.866285 L41.8282031,22.2788367 C41.8282031,21.8476931 41.6187207,21.4421027 41.2637695,21.185845 C40.9088184,20.9295872 40.4499609,20.8527462 40.0283984,20.9794252 C32.4022363,23.264541 25.7184668,23.1438425 20.6999805,20.6294721 C16.9404297,18.7457784 15.3809082,16.1487676 15.3692188,16.1288325 C15.0593555,15.5896763 14.4153223,15.3229073 13.8035742,15.4793079 C13.191084,15.6357085 12.7639551,16.1761332 12.7639551,16.7943051 C12.7639551,20.1611765 12.0280762,20.890623 8.3896875,21.1303889 C7.65900391,21.1785958 7.09178711,21.7713957 7.09178711,22.4865251 L7.09178711,26.8664662 C6.58450195,26.8806021 6.09558594,26.967592 5.63505859,27.116381 C5.03407227,24.8917957 4.65258789,23.2411624 4.54422852,22.3863055 C4.32769531,20.6854718 4.47780273,15.6143235 4.55387695,13.8040275 C4.55461914,13.785361 4.55499023,13.7668756 4.55499023,13.748209 C4.55499023,11.5227176 6.40860352,9.71224042 8.68730469,9.71224042 L10.7969727,9.71224042 C11.1660254,9.71224042 11.5198633,9.56906955 11.7811133,9.31408042 L16.7589648,4.45170782 C17.767041,3.46727218 19.253457,3.05642617 20.6391211,3.37937615 L38.1430566,7.44597245 C39.0654102,7.66054752 40.0141113,7.76928489 40.962998,7.76928489 C43.7089063,7.76928489 46.4041602,6.84936676 48.5522363,5.1791608 C48.5869336,5.15215769 48.630166,5.11808665 48.7144043,5.17136796 C48.798457,5.22428681 48.7849121,5.27648075 48.7741504,5.31798218 L47.7202441,9.39200887 C47.5319141,10.1198243 47.9833496,10.858876 48.7286914,11.0428233 C49.4736621,11.2267707 50.2306934,10.7858407 50.4186523,10.0580252 L51.4727441,5.98363609 C51.7844629,4.77701377 51.2936914,3.56151124 50.2229004,2.8869771 C49.1515527,2.21208051 47.8152441,2.27732293 46.8186719,3.05280159 C45.1611816,4.34152062 43.0815723,5.05121317 40.9628125,5.05121317 C40.2308301,5.05121317 39.4988477,4.96730417 38.7872754,4.80184214 L21.284082,0.734702145 C18.9654883,0.194458658 16.4776758,0.882041278 14.7910547,2.52923116 L10.2206641,6.99362501 L8.68730469,6.99362501 C4.88415039,6.99362501 1.78811523,10.0078248 1.77178711,13.7188499 C1.75007812,14.2462262 1.4994043,20.4998934 1.78236328,22.7208541 C1.92486328,23.8462859 2.40561523,25.8852927 3.21107422,28.783506 C2.52733398,29.6341947 2.11820312,30.7052578 2.11820312,31.8685664 L2.11820312,33.5927786 C2.11820312,36.350177 4.41230469,38.5939725 7.23354492,38.5970534 C8.00189453,44.4719522 11.8267578,49.3665835 17.0719824,51.7752974 L17.0719824,54.3704959 L14.1739258,54.3704959 C13.32375,54.3704959 12.4860059,54.462379 11.6694141,54.6423393 C10.990127,53.4822929 9.71300781,52.6970278 8.24941406,52.6970278 L4.86040039,52.6970278 C2.18036133,52.6970278 0,54.8266492 0,57.4443201 L0,64.8390047 C0,66.7495203 1.16208008,68.3988849 2.83144531,69.1511663 L2.83144531,83.6406017 C2.83144531,84.391252 3.45432617,85 4.22304687,85 L44.6963867,85 C45.4651074,85 46.0879883,84.391252 46.0879883,83.6406017 L46.0879883,65.4490214 C46.0879883,62.1144088 44.5696582,59.121594 42.1753613,57.0889301 L64.7948242,57.0889301 L64.7948242,57.7667264 C64.7948242,61.6870709 70.8191602,65.0789519 71.5060547,65.4528272 C71.7166504,65.5673639 71.9500684,65.6248134 72.1833008,65.6248134 C72.4169043,65.6248134 72.6503223,65.5675451 72.8607324,65.4528272 C73.5474414,65.0789519 79.5697363,61.6868897 79.5697363,57.7667264 L79.5697363,57.0889301 L82.4679785,57.0889301 C87.1877344,57.0889301 91.0272559,60.8392819 91.0272559,65.4490214 L91.0272559,82.2815658 L87.1266895,82.2815658 L87.1266895,73.1748113 C87.1266895,72.424161 86.5038086,71.8155942 85.7350879,71.8155942 C84.9663672,71.8155942 84.3434863,72.424161 84.3434863,73.1748113 L84.3434863,82.2815658 L60.0225586,82.2815658 L60.0225586,66.648757 C60.0225586,65.8981067 59.3996777,65.2895399 58.630957,65.2895399 L50.2832031,65.2895399 C49.5144824,65.2895399 48.8916016,65.8981067 48.8916016,66.648757 C48.8916016,67.3994073 49.5144824,68.0079741 50.2832031,68.0079741 L57.2393555,68.0079741 L57.2393555,83.6407829 C57.2393555,84.3914332 57.8622363,85 58.630957,85 L92.419043,85 C93.1877637,85 93.8106445,84.3914332 93.8106445,83.6407829 L93.8106445,65.4490214 C93.8106445,59.3403373 88.7223926,54.3704959 82.4681641,54.3704959 L79.5699219,54.3704959 L79.5699219,52.4512814 L87.5317383,52.4512814 C91.6497656,52.4512814 95,49.1781054 95,45.1550041 L95,24.6145154 C95,23.8638651 94.3771191,23.2552983 93.6083984,23.2552983 C92.8396777,23.2552983 92.2167969,23.8638651 92.2167969,24.6145154 L92.2167969,27.6908767 C91.4469629,27.193947 90.5331445,26.8934694 89.5499316,26.8661038 L89.5499316,20.3128651 C89.5499316,17.1890218 88.5875,14.1867831 86.7667285,11.6305488 C86.5451855,11.3191975 86.2002539,11.1125965 85.8158008,11.0604025 C85.4311621,11.0080274 85.0418848,11.1154961 84.7416699,11.355987 C78.630127,16.2540617 70.9037695,18.9514733 62.9857422,18.9514733 C60.7914648,18.9514733 58.6040527,18.7488593 56.4841797,18.3492495 C56.0893359,18.2749456 55.6794629,18.3711782 55.3623633,18.6138438 C55.0452637,18.8565093 54.8513672,19.2215044 54.8307715,19.6144088 C54.819082,19.8355081 54.8135156,20.0640378 54.8135156,20.3128651 L54.8135156,26.866285 C53.8308594,26.894013 52.9175977,27.1944906 52.1479492,27.691058 L52.1479492,17.4016033 C52.1479492,9.30538143 58.8918359,2.71843418 67.1811426,2.71843418 L76.4120996,2.71843418 C78.1462207,2.71843418 79.7118652,3.722805 80.4006152,5.27702443 L80.9906543,6.60905718 C81.211084,7.10653064 81.7129883,7.42857447 82.267959,7.42857447 L85.0530176,7.42857447 C89.0033105,7.42857447 92.2169824,10.5674598 92.2169824,14.4258241 L92.2169824,18.1971984 C92.2167969,18.9478487 92.8396777,19.5564155 93.6083984,19.5564155 Z M9.8950293,37.1675195 C9.85680664,36.4451409 9.24598633,35.878438 8.5052832,35.878438 L7.23948242,35.878438 C5.95030273,35.878438 4.90140625,34.8530446 4.90140625,33.5925973 L4.90140625,31.8683851 C4.90140625,30.6079378 5.95011719,29.5825445 7.23948242,29.5825445 L8.48357422,29.5825445 C9.25229492,29.5825445 9.87517578,28.9739777 9.87517578,28.2233274 L9.87517578,23.7123577 C12.7752734,23.3080359 14.4075293,22.2045329 15.1166895,20.0535265 C16.108252,20.9893928 17.4668262,22.0397957 19.2490039,22.9562705 C25.7468555,26.2975886 33.3123438,25.549838 39.045,24.0788026 L39.045,28.2233274 C39.045,28.9739777 39.6678809,29.5825445 40.4366016,29.5825445 L41.6782813,29.5825445 C42.9685742,29.5825445 44.0183984,30.6079378 44.0183984,31.8683851 L44.0183984,33.5925973 C44.0183984,34.8530446 42.9685742,35.878438 41.6782813,35.878438 L40.4124805,35.878438 C39.6719629,35.878438 39.0611426,36.4447785 39.0227344,37.1671571 C38.8286523,40.8151145 37.228125,44.2138821 34.5161719,46.737314 C33.1672461,47.9925057 31.6095801,48.9673361 29.9240723,49.6324464 C29.9153516,49.6358897 29.9068164,49.6395143 29.8980957,49.6433201 C28.1888379,50.3140484 26.348584,50.6661763 24.4599023,50.6661763 C22.540791,50.6661763 20.705918,50.3029935 19.0239355,49.6436826 C18.9977734,49.6324464 18.9706836,49.62266 18.9437793,49.6128737 C13.8596094,47.5858279 10.1950586,42.8369046 9.8950293,37.1675195 Z M29.062207,52.7783996 L29.062207,55.729713 L29.062207,57.7667264 C29.062207,58.9684555 28.5836816,60.0976931 27.7143945,60.9465694 C26.8454785,61.7954458 25.6893359,62.2628353 24.4587891,62.2628353 C21.9203223,62.2628353 19.8551855,60.2459383 19.8551855,57.7665451 L19.8551855,55.729713 L19.8551855,52.7793058 C21.323418,53.1722101 22.8669824,53.3846105 24.4600879,53.3846105 C26.0338965,53.3846105 27.5783887,53.175291 29.062207,52.7783996 Z M2.78320313,64.839186 L2.78320313,57.4443201 C2.78320313,56.3255938 3.71501953,55.415462 4.86040039,55.415462 L8.24941406,55.415462 C8.88732422,55.415462 9.40611328,55.9223594 9.40611328,56.5454245 L9.40611328,65.7380815 C9.40611328,66.3611466 8.88713867,66.868044 8.24941406,66.868044 L4.86040039,66.868044 C3.71501953,66.868044 2.78320313,65.9579122 2.78320313,64.839186 Z M43.3047852,65.4490214 L43.3047852,82.2815658 L39.403291,82.2815658 L39.403291,73.1748113 C39.403291,72.424161 38.7804102,71.8155942 38.0116895,71.8155942 C37.2429688,71.8155942 36.6200879,72.424161 36.6200879,73.1748113 L36.6200879,82.2815658 L12.2982324,82.2815658 L12.2982324,73.1748113 C12.2982324,72.424161 11.6753516,71.8155942 10.9066309,71.8155942 C10.1379102,71.8155942 9.5150293,72.424161 9.5150293,73.1748113 L9.5150293,82.2815658 L5.61464844,82.2815658 L5.61464844,69.5864782 L8.24941406,69.5864782 C10.4219824,69.5864782 12.1893164,67.8600913 12.1893164,65.7380815 L12.1893164,57.31601 C12.8346484,57.1663149 13.4985352,57.0889301 14.1737402,57.0889301 L17.0719824,57.0889301 L17.0719824,57.7667264 C17.0719824,61.7448829 20.3856641,64.9814507 24.4587891,64.9814507 C26.4328223,64.9814507 28.2879199,64.2311629 29.6824902,62.8688649 C31.0772461,61.5065669 31.8452246,59.6946399 31.8452246,57.7667264 L31.8452246,57.0889301 L34.7453223,57.0889301 C39.4650781,57.0889301 43.3047852,60.8392819 43.3047852,65.4490214 Z M76.7867187,57.7667264 C76.7867187,59.2734638 74.2823926,61.402179 72.1833008,62.6856424 C70.0827246,61.4018166 67.5780273,59.2732826 67.5780273,57.7667264 L67.5780273,52.7793058 C69.0458887,53.1722101 70.589082,53.3844292 72.1818164,53.3844292 C73.7567383,53.3844292 75.3021582,53.1749286 76.7867187,52.777856 L76.7867187,57.7667264 Z M92.2167969,37.7704682 L92.2167969,45.1550041 L92.2167969,45.1550041 C92.2167969,47.679342 90.1151074,49.7328472 87.5317383,49.7328472 L82.9476172,49.7328472 C83.3652832,49.4098972 83.770332,49.0679182 84.160166,48.7052791 C87.0676855,45.9980811 88.902373,42.4468999 89.4076172,38.5968722 C90.4446387,38.5957848 91.4098535,38.291139 92.2167969,37.7704682 Z M54.963252,29.5825445 L56.2049316,29.5825445 C56.9736523,29.5825445 57.5965332,28.9739777 57.5965332,28.2233274 L57.5965332,21.2896891 C59.3699902,21.5423223 61.1761035,21.6700887 62.9855566,21.6700887 C71.0143555,21.6700887 78.8611328,19.1044305 85.256377,14.4164002 C86.248125,16.2214405 86.766543,18.2341691 86.766543,20.3130464 L86.766543,28.2235086 C86.766543,28.9741589 87.3894238,29.5827257 88.1581445,29.5827257 L89.4022363,29.5827257 C90.691416,29.5827257 91.7403125,30.6081191 91.7403125,31.8685664 L91.7403125,33.5927786 C91.7403125,34.8532259 90.6916016,35.8786192 89.4022363,35.8786192 L88.1364355,35.8786192 C87.395918,35.8786192 86.7850977,36.4449597 86.7466895,37.1673383 C86.552793,40.8133022 84.9520801,44.2122511 82.240127,46.7374952 C80.8976953,47.9865251 79.3481934,48.9575498 77.6717773,49.6224788 C77.6470996,49.6319027 77.622793,49.6420515 77.5986719,49.6529252 C75.8955371,50.3178542 74.0625195,50.6663575 72.1816309,50.6663575 C70.2632617,50.6663575 68.4289453,50.3033559 66.7475195,49.6442263 C66.7206152,49.6326276 66.6929688,49.62266 66.6653223,49.6126924 C61.5824512,47.5854654 57.9188281,42.8367234 57.6189844,37.1677007 C57.5807617,36.4453222 56.9699414,35.8786192 56.2292383,35.8786192 L54.9634375,35.8786192 C53.6731445,35.8786192 52.6231348,34.8532259 52.6231348,33.5927786 L52.6231348,31.8683851 L52.6231348,31.8683851 C52.6231348,30.6079378 53.672959,29.5825445 54.963252,29.5825445 Z M54.9575,38.5968722 C55.5486523,43.1178095 57.9505566,47.0580892 61.4152734,49.7328472 L56.8348633,49.7328472 C54.2503809,49.7328472 52.1479492,47.6791608 52.1479492,45.1550041 L52.1479492,37.7706494 C52.9548926,38.291139 53.920293,38.5957848 54.9575,38.5968722 Z" id="Shape"></path>
                    </g>
                </g>
            </g>
        </g>
    </g>
</svg>