<?xml version="1.0" encoding="UTF-8"?>
<svg width="104px" height="104px" viewBox="0 0 104 104" version="1.1" xmlns="http://www.w3.org/2000/svg" xmlns:xlink="http://www.w3.org/1999/xlink">
    <!-- Generator: Sketch 58 (84663) - https://sketch.com -->
    <title>Group 11</title>
    <desc>Created with Sketch.</desc>
    <g id="Black-and-White" stroke="none" stroke-width="1" fill="none" fill-rule="evenodd">
        <g id="Mobile" transform="translate(-155.000000, -5869.000000)">
            <g id="Group-11" transform="translate(155.000000, 5869.000000)">
                <g id="Group-10" fill="#FFFFFF">
                    <circle id="Oval" cx="52" cy="52" r="52"></circle>
                </g>
                <g id="linkedin" transform="translate(24.960000, 24.960000)" fill="#000000" fill-rule="nonzero">
                    <path d="M41.8074577,54.08 C42.0401337,54.08 52.5647711,54.0777229 52.3343541,54.0777229 C53.2695762,54.0777229 54.028597,53.3126315 54.028597,52.3699296 C53.2379503,34.4790863 58.1896578,15.6 39.7111144,15.6 C36.1577221,15.6 33.3272068,16.82278 31.2873383,18.4394911 C31.2873383,15.1127096 27.720392,16.9525723 19.4863712,16.4584508 C18.551149,16.4584508 17.7921282,17.2235422 17.7921282,18.1662442 C18.4743433,50.4230452 16.2695685,54.0777229 19.4863712,54.0777229 L30.0132675,54.0777229 C33.0696819,54.0777229 31.1246909,49.7330966 31.7075105,35.4331736 C31.7075105,29.5264856 33.4017535,28.3697402 36.3294054,28.3697402 C39.5687979,28.3697402 40.1132147,30.6376898 40.1132147,35.7200828 C40.6937753,49.7626984 38.7623383,54.08 41.8074577,54.08 Z M36.3294054,24.9541535 C26.1842784,24.9541535 28.3190246,36.198265 28.3190246,50.6621362 L21.1806141,50.6621362 L21.1806141,19.8740375 L27.8988523,19.8740375 L27.8988523,22.8296586 C27.8988523,24.4691402 30.376965,25.2752187 31.2398995,23.6266288 C32.3513229,21.4998568 35.2383129,19.0155867 39.7111144,19.0155867 C47.6785743,19.0155867 50.6401111,22.9617279 50.6401111,33.5796485 L50.6401111,50.6644133 L43.5017007,50.6644133 C43.5017007,34.3971123 45.2094976,24.9541535 36.3294054,24.9541535 L36.3294054,24.9541535 Z" id="Shape"></path>
                    <path d="M2.30950728,16.704514 C-0.874758383,16.704514 1.30489389,20.2902622 0.627676824,52.3832737 C0.627676824,53.3198666 1.38113687,54.08 2.30950728,54.08 L12.7704927,54.08 C15.9547584,54.08 13.7751061,50.4942518 14.4523232,18.4012403 C14.4523232,15.4715596 10.2342924,17.1999581 2.30950728,16.704514 Z M11.0886623,50.6865475 L3.99133774,50.6865475 L3.99133774,20.0979665 L11.0886623,20.0979665 L11.0886623,50.6865475 Z" id="Shape"></path>
                    <path d="M7.79913922,0 C-2.63160082,0 -2.56777636,15.6 7.79913922,15.6 C18.1592165,15.6 18.2412765,0 7.79913922,0 Z M7.79913922,12.2228893 C1.94552462,12.2228893 1.89081794,3.37711069 7.79913922,3.37711069 C13.7188577,3.37711069 13.643636,12.2228893 7.79913922,12.2228893 Z" id="Shape"></path>
                </g>
            </g>
        </g>
    </g>
</svg>