<?xml version="1.0" encoding="UTF-8"?>
<svg width="149px" height="149px" viewBox="0 0 149 149" version="1.1" xmlns="http://www.w3.org/2000/svg" xmlns:xlink="http://www.w3.org/1999/xlink">
    <!-- Generator: Sketch 58 (84663) - https://sketch.com -->
    <title>Group</title>
    <desc>Created with Sketch.</desc>
    <g id="Black-and-White" stroke="none" stroke-width="1" fill="none" fill-rule="evenodd">
        <g id="Desktop-HD" transform="translate(-77.000000, -1616.000000)">
            <g id="Group-8" transform="translate(78.000000, 1617.000000)">
                <g id="Group">
                    <circle id="Oval" stroke="#000000" stroke-width="2" fill="#FFFFFF" cx="73.5" cy="73.5" r="73.5"></circle>
                    <g id="tourism" transform="translate(34.000000, 35.000000)" fill="#000000" fill-rule="nonzero">
                        <path d="M38.4153883,8.44364437 L35.8638323,7.02507856 C35.0978204,6.59756558 34.1696101,6.57258105 33.3804269,6.9556771 L27.5481043,9.79558478 L20.4631749,5.52739509 C20.1605865,5.34556327 19.7980257,5.28726604 19.459999,5.37054779 L14.0079564,6.66696704 C13.5268136,6.78078543 13.1438076,7.15138922 13.0075066,7.63442337 C12.8712055,8.11745752 13.0020545,8.63796846 13.3482592,8.99469195 L18.4418301,14.2289499 L14.5776948,16.1111175 L7.81443594,13.5404875 C7.28831382,13.3392233 6.6981302,13.4877424 6.32466528,13.9138673 C5.94983735,14.3372162 5.86941972,14.9521131 6.11885067,15.4615199 L10.2065196,23.7896949 C10.4382315,24.2602368 10.9098332,24.557275 11.4264142,24.557275 L15.5154462,24.557275 C15.748521,24.557275 15.9775068,24.4962017 16.1805954,24.3809953 L21.2809813,21.4744622 L20.9702148,25.843978 C20.9347766,26.3408925 21.1651254,26.8197625 21.5713025,27.0973684 C21.8002883,27.2542157 22.0647124,27.3333333 22.3304995,27.3333333 C22.5390401,27.3333333 22.7475807,27.2847523 22.9397653,27.1875903 L28.3918079,24.4115319 C28.7380126,24.2352522 28.9956216,23.9160055 29.0978474,23.5342975 L30.7934327,17.1937803 L38.3281556,13.3642078 C39.2400098,12.899218 39.8165633,11.9664624 39.8356454,10.9296046 C39.8533646,9.89274683 39.3095233,8.93917079 38.4153883,8.44364437 Z M17.0024908,8.80453196 L19.5472317,8.19935124 L24.5890082,11.234971 L21.0492695,12.9589033 L17.0024908,8.80453196 Z M29.0283339,14.9895899 C28.6807662,15.1658696 28.4245202,15.4851163 28.3222944,15.8668244 L26.6267091,22.2073416 L23.8611605,23.6161912 L24.181468,19.1078725 C24.2169062,18.5984658 23.9770164,18.1098795 23.55312,17.8364378 C23.3309493,17.6906947 23.0774293,17.6171292 22.8225463,17.6171292 C22.5935605,17.6171292 22.3645748,17.6754264 22.1573971,17.7934089 L15.1597004,21.7812167 L12.2687548,21.7812167 L10.1042938,17.374224 L14.1687916,18.9177125 C14.5136333,19.0509633 14.8993654,19.0301428 15.233303,18.8705195 L21.3477688,15.8931969 L21.3491318,15.8931969 L28.0687744,12.6216122 C28.0701374,12.6216122 28.0701374,12.6202241 28.0701374,12.6202241 L34.5553421,9.46245778 L37.1082611,10.8824116 L29.0283339,14.9895899 Z" id="Shape"></path>
                        <path d="M35.7966885,50.3169167 C35.7873934,50.3046667 35.7873934,50.2883333 35.7780984,50.2774444 C35.7555246,50.2488611 35.7302951,50.2243611 35.7077213,50.1957778 C35.3624754,49.7506944 34.9999672,49.3219444 34.6122295,48.9163333 C34.5923115,48.8959167 34.5750492,48.8727778 34.556459,48.8523611 C34.1567705,48.4385833 33.7345082,48.0465833 33.2936557,47.6777222 C33.1422787,47.5511389 32.9816066,47.4395278 32.8262459,47.31975 C32.5460656,47.1019722 32.2645574,46.8855556 31.9697705,46.6868333 C31.7493443,46.5371111 31.5209508,46.4023611 31.2925574,46.2648889 C31.0455738,46.1151667 30.7972623,45.9695278 30.5423115,45.8334167 C30.2966557,45.70275 30.0470164,45.58025 29.7947213,45.4631944 C29.5371148,45.3434167 29.2755246,45.2318056 29.0099508,45.1256389 C28.7576557,45.0249167 28.5053607,44.9269167 28.249082,44.8398056 C27.9582787,44.7404444 27.6608361,44.6560556 27.3620656,44.5743889 C27.1217213,44.5090556 26.8840328,44.4382778 26.6397049,44.3838333 C26.2878197,44.3048889 25.9279672,44.2490833 25.5667869,44.1946389 C25.3662787,44.1646944 25.1684262,44.1225 24.9665902,44.1007222 C24.3969344,44.03675 23.8219672,44 23.2377049,44 C22.6534426,44 22.0784754,44.03675 21.5101475,44.1007222 C21.3083115,44.1225 21.110459,44.1646944 20.9099508,44.1946389 C20.5487705,44.2490833 20.1902459,44.3048889 19.8370328,44.3838333 C19.5927049,44.4382778 19.3550164,44.5090556 19.1146721,44.5743889 C18.8159016,44.6560556 18.5197869,44.7404444 18.2276557,44.8398056 C17.9700492,44.9269167 17.7177541,45.0249167 17.4667869,45.1256389 C17.2012131,45.2318056 16.939623,45.3434167 16.6820164,45.4631944 C16.4297213,45.58025 16.180082,45.70275 15.9344262,45.8334167 C15.6794754,45.9695278 15.4311639,46.1151667 15.1841803,46.2648889 C14.9571148,46.4023611 14.7287213,46.5371111 14.5069672,46.6868333 C14.2121803,46.8855556 13.9306721,47.1019722 13.6504918,47.31975 C13.4951311,47.4408889 13.334459,47.5511389 13.183082,47.6777222 C12.7422295,48.0465833 12.3212951,48.4385833 11.9202787,48.8523611 C11.9003607,48.8727778 11.8830984,48.8959167 11.8645082,48.9163333 C11.4767705,49.3219444 11.1142623,49.7506944 10.7690164,50.1957778 C10.7464426,50.2243611 10.7212131,50.2488611 10.6986393,50.2774444 C10.6893443,50.2896944 10.6880164,50.3046667 10.6800492,50.3169167 C8.57139344,53.0854167 7.30327869,56.5576111 7.30327869,60.3333333 C7.30327869,64.2193056 8.63911475,67.7881389 10.8566557,70.59475 C10.864623,70.6056389 10.8659508,70.6206111 10.873918,70.6315 C10.8898525,70.6519167 10.9084426,70.66825 10.924377,70.6886667 C11.2643115,71.1133333 11.6254918,71.5203056 12.0052623,71.9068611 C12.1885082,72.0946944 12.3863607,72.2621111 12.5762459,72.4390556 C12.7900328,72.6364167 12.9998361,72.8365 13.222918,73.0229722 C13.4513115,73.2135278 13.6903279,73.38775 13.9280164,73.5633333 C14.1325082,73.7144167 14.3356721,73.8655 14.5468033,74.0070556 C14.7964426,74.1744722 15.0500656,74.3296389 15.3076721,74.4807222 C15.5280984,74.6113889 15.7511803,74.7366111 15.9782459,74.8563889 C16.2345246,74.9911389 16.4921311,75.1204444 16.7537213,75.2402222 C17.0046885,75.3559167 17.2609672,75.4593611 17.5185738,75.5614444 C17.769541,75.6608056 18.0178525,75.7601667 18.2741311,75.8459167 C18.568918,75.9452778 18.8690164,76.0269444 19.1704426,76.1086111 C19.4028197,76.1712222 19.6312131,76.2406389 19.8675738,76.2923611 C20.2247705,76.3713056 20.5912623,76.4271111 20.9564262,76.4801944 C21.1463115,76.5087778 21.333541,76.54825 21.526082,76.5700278 C22.0904262,76.6312778 22.660082,76.6666667 23.2377049,76.6666667 C23.8153279,76.6666667 24.3849836,76.6312778 24.948,76.5686667 C25.1392131,76.54825 25.3264426,76.5074167 25.5176557,76.4788333 C25.8841475,76.4243889 26.2493115,76.3699444 26.6065082,76.291 C26.841541,76.2392778 27.0712623,76.1698611 27.3036393,76.10725 C27.6050656,76.0255833 27.9064918,75.9439167 28.1999508,75.8445556 C28.4549016,75.7588056 28.704541,75.6594444 28.9555082,75.5600833 C29.2131148,75.458 29.4693934,75.3545556 29.7203607,75.2388611 C29.9832787,75.1190833 30.2408852,74.9897778 30.4958361,74.8550278 C30.7229016,74.73525 30.9459836,74.6100278 31.1664098,74.4793611 C31.4240164,74.3269167 31.6776393,74.17175 31.9272787,74.0056944 C32.1384098,73.8641389 32.3415738,73.7130556 32.5460656,73.5619722 C32.7837541,73.3850278 33.0214426,73.2121667 33.2511639,73.0216111 C33.4742459,72.8365 33.6840492,72.6350556 33.8978361,72.4376944 C34.0890492,72.26075 34.2855738,72.0933333 34.4688197,71.9055 C34.8485902,71.5175833 35.2097705,71.1119722 35.5497049,70.6873056 C35.5656393,70.6668889 35.5842295,70.6505556 35.6001639,70.6301389 C35.6081311,70.61925 35.609459,70.6042778 35.6174262,70.5933889 C37.8362951,67.7881389 39.1721311,64.2193056 39.1721311,60.3333333 C39.1721311,56.5576111 37.9040164,53.0854167 35.7966885,50.3169167 Z M14.8402623,49.8024167 C14.9757049,49.6867222 15.1217705,49.586 15.2625246,49.4771111 C15.4563934,49.3260278 15.6476066,49.1708611 15.8481148,49.0320278 C16.1097049,48.8523611 16.381918,48.6890278 16.655459,48.5284167 C16.7152131,48.4930278 16.7723115,48.4535556 16.8320656,48.4208889 C16.3195082,49.2702222 15.8600656,50.2161944 15.471,51.2560833 C14.9172787,51.0818611 14.3834754,50.8940278 13.8895082,50.6844167 C14.1935902,50.3727222 14.5109508,50.0800833 14.8402623,49.8024167 Z M12.15,52.8649167 C12.9241475,53.2405833 13.7753115,53.5699722 14.6795902,53.8571667 C14.286541,55.5000278 14.0475246,57.2926111 13.9758197,59.17775 L10.0161148,59.17775 C10.2073279,56.8597778 10.9642131,54.7065 12.15,52.8649167 Z M12.3305902,68.0753333 C11.1142623,66.2800278 10.3095738,64.17575 10.054623,61.8986111 L13.9864426,61.8986111 C14.083377,63.7783056 14.3595738,65.5491111 14.7778525,67.177 C13.9200492,67.4369722 13.0994262,67.7350556 12.3305902,68.0753333 Z M16.6833443,72.1559444 C16.4217541,72.0021389 16.1641475,71.8456111 15.9145082,71.6768333 C15.8082787,71.6046944 15.7047049,71.52575 15.6011311,71.4495278 C15.3634426,71.2780278 15.1297377,71.1010833 14.904,70.9146111 C14.7911311,70.8206944 14.680918,70.7199722 14.5707049,70.6219722 C14.4326066,70.4994722 14.2984918,70.3715278 14.164377,70.2435833 C14.6238197,70.0666389 15.1204426,69.921 15.6144098,69.7726389 C15.9702787,70.6696111 16.3779344,71.4930833 16.828082,72.2403333 C16.7789508,72.2131111 16.7311475,72.1831667 16.6833443,72.1559444 Z M21.9098361,73.65725 C20.462459,73.0270556 19.1757541,71.3896389 18.2289836,69.1410833 C19.4041475,68.9314722 20.6417213,68.8144167 21.9098361,68.7586111 L21.9098361,73.65725 Z M21.9098361,66.0159722 C20.3389672,66.0799444 18.8132459,66.25825 17.3605574,66.54 C16.9927377,65.1121944 16.7457541,63.5469167 16.6488197,61.8986111 L21.9098361,61.8986111 L21.9098361,66.0159722 Z M21.9098361,59.1763889 L16.6275738,59.1763889 C16.6992787,57.5267222 16.9236885,55.9546389 17.2676066,54.5118611 C18.7375574,54.8058611 20.2964754,54.9923333 21.9098361,55.0576667 L21.9098361,59.1763889 Z M21.9098361,52.3408889 C20.584623,52.281 19.2939344,52.1312778 18.073623,51.9026111 C19.0323443,49.4594167 20.3827869,47.675 21.9098361,47.0094167 L21.9098361,52.3408889 Z M34.3267377,52.8635556 C35.5125246,54.7065 36.268082,56.8584167 36.460623,59.1763889 L32.500918,59.1763889 C32.4292131,57.29125 32.1901967,55.4986667 31.7971475,53.8558056 C32.7014262,53.5699722 33.5512623,53.2405833 34.3267377,52.8635556 Z M29.8212787,48.5284167 C30.0934918,48.6890278 30.3670328,48.8523611 30.6272951,49.0320278 C30.8278033,49.1708611 31.0190164,49.3260278 31.2128852,49.4771111 C31.3536393,49.586 31.4997049,49.6880833 31.6364754,49.8024167 C31.964459,50.0800833 32.2831475,50.3727222 32.5872295,50.6844167 C32.0945902,50.8953889 31.559459,51.0818611 31.0057377,51.2560833 C30.6166721,50.2161944 30.1572295,49.2702222 29.6446721,48.4208889 C29.7044262,48.4549167 29.7615246,48.4943889 29.8212787,48.5284167 Z M24.5655738,47.0094167 C26.092623,47.675 27.4430656,49.4594167 28.4017869,51.9026111 C27.1814754,52.1299167 25.8907869,52.281 24.5655738,52.3408889 L24.5655738,47.0094167 Z M24.5655738,55.0576667 C26.1789344,54.9923333 27.7378525,54.8058611 29.2064754,54.5118611 C29.5503934,55.9546389 29.7761311,57.5267222 29.8465082,59.1763889 L24.5655738,59.1763889 L24.5655738,55.0576667 Z M24.5655738,73.65725 L24.5655738,68.7586111 C25.8336885,68.8144167 27.0712623,68.9314722 28.2464262,69.1410833 C27.2996557,71.3896389 26.011623,73.0270556 24.5655738,73.65725 Z M24.5655738,66.0159722 L24.5655738,61.8986111 L29.8265902,61.8986111 C29.7296557,63.5455556 29.4826721,65.1121944 29.1148525,66.54 C27.6621639,66.25825 26.1364426,66.0799444 24.5655738,66.0159722 Z M31.9047049,70.6219722 C31.7944918,70.7199722 31.6856066,70.8206944 31.5714098,70.9146111 C31.3456721,71.1024444 31.1119672,71.2780278 30.8742787,71.4495278 C30.769377,71.52575 30.6671311,71.6033333 30.5609016,71.6768333 C30.3112623,71.8469722 30.0536557,72.0035 29.7933934,72.1559444 C29.7455902,72.1845278 29.696459,72.2131111 29.6486557,72.2403333 C30.0988033,71.4930833 30.506459,70.66825 30.8623279,69.7726389 C31.3562951,69.921 31.8515902,70.0666389 32.3123607,70.2435833 C32.1782459,70.3715278 32.0441311,70.4994722 31.9047049,70.6219722 Z M34.1461475,68.0753333 C33.3759836,67.7350556 32.5566885,67.4383333 31.6988852,67.177 C32.1171639,65.5491111 32.3933607,63.7783056 32.4902951,61.8986111 L36.4221148,61.8986111 C36.1658361,64.17575 35.3611475,66.2800278 34.1461475,68.0753333 Z" id="Shape"></path>
                        <path d="M79.65,2.73333333 L45.9,2.73333333 L45.9,1.36666667 C45.9,0.6109 45.2952,0 44.55,0 L1.35,0 C0.6048,0 0,0.6109 0,1.36666667 L0,80.6333333 C0,81.3891 0.6048,82 1.35,82 L44.55,82 C45.2952,82 45.9,81.3891 45.9,80.6333333 L45.9,79.2666667 L79.65,79.2666667 C80.3952,79.2666667 81,78.6557667 81,77.9 L81,4.1 C81,3.34423333 80.3952,2.73333333 79.65,2.73333333 Z M43.2,79.2666667 L2.7,79.2666667 L2.7,2.73333333 L43.2,2.73333333 L43.2,79.2666667 Z M78.3,76.5333333 L45.9,76.5333333 L45.9,5.46666667 L78.3,5.46666667 L78.3,76.5333333 Z" id="Shape"></path>
                        <path d="M33.8606557,30.1333333 L9.95901639,30.1333333 C9.22736066,30.1333333 8.63114754,29.5061333 8.63114754,28.7333333 L8.63114754,27.3333333 L5.97540984,27.3333333 L5.97540984,28.7333333 C5.97540984,31.0489333 7.76272131,32.9333333 9.95901639,32.9333333 L33.8606557,32.9333333 C34.5923115,32.9333333 35.1885246,33.5605333 35.1885246,34.3333333 C35.1885246,35.1061333 34.5923115,35.7333333 33.8606557,35.7333333 L25.8934426,35.7333333 C23.6971475,35.7333333 21.9098361,37.6177333 21.9098361,39.9333333 L21.9098361,41.3333333 L24.5655738,41.3333333 L24.5655738,39.9333333 C24.5655738,39.1605333 25.1617869,38.5333333 25.8934426,38.5333333 L33.8606557,38.5333333 C36.0569508,38.5333333 37.8442623,36.6489333 37.8442623,34.3333333 C37.8442623,32.0177333 36.0569508,30.1333333 33.8606557,30.1333333 Z" id="Path"></path>
                        <rect id="Rectangle" x="5.97540984" y="22" width="2.6557377" height="2.66666667"></rect>
                        <path d="M60.75,13.3333333 C58.3706803,13.3333333 56.4344262,15.2775556 56.4344262,17.6666667 C56.4344262,20.0557778 58.3706803,22 60.75,22 C63.1293197,22 65.0655738,20.0557778 65.0655738,17.6666667 C65.0655738,15.2775556 63.1293197,13.3333333 60.75,13.3333333 Z M60.75,19.1111111 C59.957373,19.1111111 59.3114754,18.464 59.3114754,17.6666667 C59.3114754,16.8693333 59.957373,16.2222222 60.75,16.2222222 C61.542627,16.2222222 62.1885246,16.8693333 62.1885246,17.6666667 C62.1885246,18.464 61.542627,19.1111111 60.75,19.1111111 Z" id="Shape"></path>
                        <path d="M74.9913934,8.66666667 L50.4922131,8.66666667 C49.7409049,8.66666667 49.1311475,9.27562319 49.1311475,10.0289855 L49.1311475,38.6376812 C49.1311475,39.3910435 49.7409049,40 50.4922131,40 L74.9913934,40 C75.7427016,40 76.352459,39.3910435 76.352459,38.6376812 L76.352459,10.0289855 C76.352459,9.27562319 75.7427016,8.66666667 74.9913934,8.66666667 Z M73.6303279,37.2753623 L51.8532787,37.2753623 L51.8532787,34.5507246 L61.3807377,34.5507246 L73.6303279,34.5507246 L73.6303279,37.2753623 Z M53.0360447,31.826087 L55.9364754,27.4707536 L58.8369061,31.826087 L53.0360447,31.826087 Z M63.8361,31.826087 L68.1860656,24.8605507 L72.5360311,31.826087 L63.8361,31.826087 Z M73.6303279,28.438 L69.3402492,21.5678261 C68.8420992,20.7722319 67.530032,20.7722319 67.031882,21.5678261 L61.3439889,30.6776522 L57.068882,24.2597681 C56.5639266,23.5009565 55.3090242,23.5009565 54.8040689,24.2597681 L51.8532787,28.6886667 L51.8532787,11.3913043 L73.6303279,11.3913043 L73.6303279,28.438 Z" id="Shape"></path>
                        <rect id="Rectangle" x="50.4590164" y="50.6666667" width="23.9016393" height="2.66666667"></rect>
                        <rect id="Rectangle" x="50.4590164" y="57.3333333" width="23.9016393" height="2.66666667"></rect>
                        <rect id="Rectangle" x="50.4590164" y="64.6666667" width="23.9016393" height="2.66666667"></rect>
                        <rect id="Rectangle" x="55.1065574" y="70.6666667" width="2.6557377" height="2.66666667"></rect>
                        <rect id="Rectangle" x="61.0819672" y="70.6666667" width="2.6557377" height="2.66666667"></rect>
                        <rect id="Rectangle" x="66.3934426" y="70.6666667" width="2.6557377" height="2.66666667"></rect>
                        <rect id="Rectangle" x="53.7786885" y="43.3333333" width="16.5983607" height="2.66666667"></rect>
                    </g>
                </g>
            </g>
        </g>
    </g>
</svg>