<?xml version="1.0" encoding="UTF-8"?>
<svg width="95px" height="87px" viewBox="0 0 95 87" version="1.1" xmlns="http://www.w3.org/2000/svg" xmlns:xlink="http://www.w3.org/1999/xlink">
    <!-- Generator: Sketch 58 (84663) - https://sketch.com -->
    <title>Dragon</title>
    <desc>Created with Sketch.</desc>
    <g id="Black-and-White" stroke="none" stroke-width="1" fill="none" fill-rule="evenodd">
        <g id="Components" transform="translate(-1693.000000, -286.000000)" fill="#FFFFFF">
            <g id="Dragon" transform="translate(1693.000000, 286.000000)">
                <path d="M83.8321755,24.6658537 C84.4922264,24.4402882 85.061138,24.3030235 85.5389102,24.2540595 C86.454009,24.1602766 87.9953089,24.1928602 88.474769,24.2540595 C89.3297178,24.363187 90.3070354,24.8141658 91.406722,25.606996 C89.8664224,25.6587271 88.7633464,25.8620725 88.0974939,26.217032 C87.4316414,26.5719915 86.5787802,27.3813239 85.5389102,28.6450291 L84.786604,27.5652444 C82.6010465,28.8238265 80.998466,29.5544246 79.9788625,29.7570387 C79.3459211,29.8828159 77.7111689,29.8867208 76.7653219,29.7570387 C76.3801117,29.7042237 76.0256948,29.5753807 75.7020714,29.3705095 C75.4752866,29.2190745 75.2734456,28.9772477 75.0965483,28.6450291 C74.919651,28.3128106 74.6765308,27.7711445 74.3671875,27.0200308 C76.2516069,27.7784537 77.7738784,28.092184 78.934002,27.9612217 C80.0941257,27.8302595 81.8456827,27.1469582 84.1886732,25.9113179 L83.8321755,24.6658537 Z" id="Path"></path>
                <path d="M81.802543,25.0196884 C81.4673779,24.454524 81.1739239,24.0487612 80.922181,23.8023999 C80.6704381,23.5560386 80.2641129,23.2769817 79.7032053,22.9652293 L74.7874853,22.6558035 C74.5197605,22.8133798 74.1481908,22.627848 73.6727763,22.0992082 C73.3863964,21.7807665 73.1531339,21.0745571 72.7242529,20.4324592 C72.5355214,20.1499004 72.1799235,19.7308652 71.6574593,19.1753536 C70.7217959,18.8940472 69.9887795,18.753394 69.4584103,18.753394 C68.928041,18.753394 68.1163466,18.8940472 67.023327,19.1753536 L63.837962,19.6270073 C62.3481916,19.575561 61.2511415,19.4250097 60.5468119,19.1753536 C59.8424823,18.9256975 58.989115,18.3849053 57.9867098,17.5529771 C57.2878351,16.9303307 56.7009834,16.2378062 56.2261546,15.4754038 C55.7513258,14.7130013 55.1807833,13.5471712 54.5145271,11.9779135 C53.5226584,13.5844897 53.1041293,14.9766809 53.2589399,16.1544871 C53.3557443,16.8909799 53.8891154,18.7247101 54.5145271,19.9040396 C54.7643621,20.3751499 55.1765924,20.8693764 55.751218,21.386719 C56.3280006,21.7447696 56.7663257,21.982266 57.0661933,22.0992082 C57.4301144,22.2411298 57.6599195,22.2603093 57.9867098,22.3710103 C58.9092728,22.6835306 59.7800233,22.9973887 60.2370487,23.2238715 C61.0560525,23.6297356 62.0044634,24.2283413 63.0822814,25.0196884 L68.5250713,20.922749 L71.6574593,22.6558035 C71.5027652,23.0345155 71.1881654,23.2238715 70.71366,23.2238715 C70.2391546,23.2238715 69.509625,22.9395844 68.5250713,22.3710103 L63.837962,26.1581865 L67.3853923,37.9642827 C68.5614539,38.1481589 69.4475522,38.3341968 70.0436873,38.5223965 C70.6398224,38.7105961 71.5333443,39.0863837 72.7242529,39.6497592 C72.4073671,38.259891 71.9660051,37.1226303 71.4001669,36.2379769 C71.0732719,35.7268966 70.462432,34.7241907 69.7919625,33.9744782 C69.4652436,33.6091442 68.9207678,33.1214977 68.158535,32.5115386 C68.8516534,32.012784 69.3961292,31.7318713 69.7919625,31.6688003 C70.7566023,31.5150973 71.8986642,31.8920915 72.4298429,32.1516666 C72.9580946,32.4098113 74.0622139,33.0018235 74.7874853,33.9744782 C75.0894234,34.3794045 75.4216259,35.1339041 75.7840929,36.2379769 L77.6371047,30.8810636 C77.024123,30.9358234 76.168956,30.7497854 75.0716037,30.3229499 C73.9742513,29.8961144 72.7504391,29.2734947 71.4001669,28.455091 L73.6727763,26.1581865 L77.8954095,27.024077 C78.3662273,26.6541811 78.7407214,26.3655509 79.0188917,26.1581865 C79.297062,25.9508221 79.6925332,25.5713227 80.2053052,25.0196884 L81.802543,25.0196884 Z" id="Path-2"></path>
                <path d="M58.4393758,11.9779135 C58.9889715,13.3408272 59.4832542,14.2381171 59.922224,14.6697831 C60.3611937,15.1014491 61.1276722,15.4439434 62.2216593,15.6972658 C63.1578401,16.276303 63.7543649,16.7305999 64.0112337,17.0601566 C64.2681025,17.3897132 64.4257961,17.9030609 64.4843144,18.6001995 C63.4031764,18.6200585 62.5158408,18.5467231 61.8223076,18.3801934 C61.1287745,18.2136636 60.2803561,17.8702134 59.2770526,17.3498426 C58.9028756,17.0315814 58.62365,16.7609041 58.4393758,16.5378107 C57.7450895,15.6972658 57.7450895,15.0764814 57.6816706,14.6697831 C57.5797244,14.0160132 57.8322928,13.1187233 58.4393758,11.9779135 Z" id="Path-3"></path>
                <path d="M67.8756556,39.3526755 C67.9102994,39.7268214 68.0154707,40.2576671 68.1911695,40.9452125 C68.3668682,41.6327579 68.6702086,42.7005027 69.1011906,44.1484469 C70.3811467,44.1156452 71.409577,44.2438332 72.1864815,44.5330107 C72.963386,44.8221882 74.1219999,45.501378 75.6623232,46.5705799 C75.6337175,45.8121101 75.5409859,45.2456751 75.3841281,44.8712751 C74.7496014,43.3567381 73.6745217,42.1168803 72.9961209,41.4880321 C72.0661647,40.6260029 70.359343,39.9142174 67.8756556,39.3526755 Z" id="Path-4"></path>
                <path d="M69.6430261,45.7583529 L70.4683766,49.940959 C72.3336457,51.0423254 73.5911947,51.9945621 74.2410238,52.7976692 C74.8908528,53.6007763 75.4648522,54.9121035 75.963022,56.7316508 L76.3915377,56.7316508 C76.6455972,54.2751592 76.7416368,52.7397464 76.6796565,52.1254124 C76.6351315,51.684091 76.686704,51.012773 76.5361465,50.3727099 C76.3721012,49.6753067 75.9993933,49.0135001 75.7993681,48.6882526 C75.3023909,47.8801516 73.7980714,46.7691457 72.173344,46.1777733 C71.6130799,45.973847 70.7696406,45.8340402 69.6430261,45.7583529 Z" id="Path-5"></path>
                <path d="M89.2705916,31.9937142 C88.3392938,31.9998479 87.6956158,32.2114564 87.3395575,32.6285396 C87.1172115,32.8889935 86.8392694,33.3688587 86.6523489,34.0108325 C86.57741,34.2682085 86.4958437,34.7137096 86.4076499,35.347336 C86.5595336,37.1242546 86.5595336,38.4593678 86.4076499,39.3526755 C86.2557663,40.2459832 85.8025725,41.5763414 85.0480686,43.34375 C84.1401185,44.556559 83.2392868,45.548019 82.3455733,46.3181299 C81.4518598,47.0882408 79.9898321,48.1328515 77.9594902,49.4519621 C78.1101263,51.7665253 78.1101263,53.5355868 77.9594902,54.7591464 C77.8088542,55.9827061 77.3883206,57.629479 76.6978894,59.6994654 C76.4999627,60.5974684 76.4009994,61.3787591 76.4009994,62.0433374 C76.4009994,62.7079158 76.4999627,63.5304781 76.6978894,64.5110243 L79.0882926,62.4404238 C79.938866,63.1642576 80.5890766,63.6244725 81.0389246,63.8210684 C81.4887725,64.0176643 82.1372112,64.1249948 82.9842405,64.14306 C81.6480132,62.0417106 80.893343,60.4790071 80.7202298,59.4549495 C80.5471166,58.4308919 80.7959061,57.001039 81.4665984,55.1653907 C82.239597,53.6429188 82.8982329,52.633047 83.4425061,52.1357753 C83.9867794,51.6385037 84.8545206,51.2538109 86.0457299,50.9816972 C86.5444232,52.2324381 86.9756991,53.0938299 87.3395575,53.5658725 C87.7034159,54.0379151 88.3470939,54.5710878 89.2705916,55.1653907 C88.887181,53.7175883 88.6954757,52.6144281 88.6954757,51.85591 C88.6954757,51.0973919 88.887181,49.9846464 89.2705916,48.5176735 C89.3557561,48.1605617 89.3557561,47.7593847 89.2705916,47.3141427 C89.1854271,46.8689007 88.9937218,46.2678374 88.6954757,45.5109529 C89.7422273,44.6518639 90.467777,43.929463 90.8721246,43.34375 C91.2764722,42.758037 91.6661102,41.8650461 92.0410385,40.6647771 C92.9178502,40.4784287 93.5678167,40.2590666 93.9909379,40.0066906 C94.4140591,39.7543147 94.7504131,39.3853735 95,38.8998672 C93.9303988,38.7628448 93.2461058,38.5760237 92.9471208,38.339404 C92.6481358,38.1027842 92.4525232,37.5932388 92.3602828,36.8107678 C92.430095,35.7963019 92.6257076,35.1416343 92.9471208,34.8467653 C93.268534,34.5518963 93.952827,34.3993257 95,34.3890536 C94.6086774,33.8531649 94.2723234,33.4645648 93.9909379,33.2232534 C93.7095524,32.981942 93.3616133,32.7837041 92.9471208,32.6285396 C92.0704305,32.6503543 91.3787651,32.8485923 90.8721246,33.2232534 C90.365484,33.5979145 89.8316397,34.305942 89.2705916,35.347336 C88.7281999,34.881952 88.4570041,34.4364508 88.4570041,34.0108325 C88.4570041,33.5852142 88.7281999,32.9128414 89.2705916,31.9937142 Z" id="Path-6"></path>
                <path d="M70.5509462,51.7546355 C71.6084927,52.6333725 72.3245583,53.2802788 72.6991431,53.6953542 C73.6218535,54.7178048 74.1155962,55.6832917 74.4406502,56.4226259 C74.9636432,57.6121718 75.1498387,59.4287156 74.9992365,61.8722574 C74.9824403,63.3227415 75.0671442,64.4435238 75.2533483,65.2346044 C75.4395524,66.025685 75.9031393,67.2342935 76.6441088,68.8604299 C76.9048419,70.2919291 77.1289871,71.2999935 77.3165444,71.8846231 C77.9223976,73.7731119 78.6877131,75.0807415 79.2249747,75.9072135 C80.0117208,77.1174684 81.1109838,78.108679 82.5227637,78.8808451 C83.0808541,78.7868027 83.471459,78.6596136 83.6945783,78.4992777 C84.3375197,78.0372531 84.7999502,77.2833405 85.0119726,77.0941946 C86.1513649,76.0777382 86.1579069,75.7166585 86.8865337,75.4092908 C87.9244061,74.9714693 88.8195181,75.1374435 89.5718698,75.9072135 C88.50435,76.6814938 88.0344333,77.2695781 88.1621198,77.6714664 C88.2380108,77.9103302 88.4171958,78.4503382 88.9833325,78.771778 C89.2409245,78.9180329 89.7887682,79.0700288 90.6268636,79.2277655 C91.3681544,79.5301605 91.8495159,79.8480895 92.070948,80.1815523 C92.2923802,80.5150151 92.4381111,81.1414476 92.5081408,82.0608498 C91.5835914,81.7924231 90.9564991,81.6970896 90.6268636,81.7748493 C90.2972282,81.852609 89.9455636,82.1788274 89.5718698,82.7535046 C89.3826662,83.2745847 89.3594246,83.6948296 89.5021451,84.0142392 C89.6448656,84.3336488 90.0906816,84.8591287 90.8395929,85.5906789 C90.6997441,85.6939323 90.5848018,85.7548317 90.494766,85.7733768 C89.9758658,85.8802577 89.4885469,85.8248194 89.2003636,85.7733768 C88.9515445,85.728961 88.7918097,85.5427627 88.3869352,85.3313757 C88.2628686,85.2665999 88.0045792,85.1712299 87.6120671,85.0452658 C85.8830399,85.6834947 84.5489602,85.9900017 83.6098279,85.9647869 C82.6706956,85.9395721 81.2844115,85.5849677 79.4509757,84.9009736 C78.85888,85.1265966 78.3497247,85.2394081 77.9235098,85.2394081 C77.4972948,85.2394081 76.8682998,85.2018707 76.0365248,85.1267959 L73.1704577,84.1046162 C72.5151741,84.0201752 72.0019698,84.0201752 71.6308448,84.1046162 C71.2597199,84.1890571 70.7352877,84.4251475 70.0575483,84.8128873 C70.224212,83.9472226 70.4736125,83.2607616 70.8057498,82.7535046 C71.4466286,81.7747215 72.4275935,80.764639 73.1704577,79.8994666 C73.7412127,79.2347402 73.8881793,78.6593378 74.0604759,78.2263417 C74.6313533,76.7916774 74.6313533,75.6339583 74.0604759,74.7531842 C73.1628098,73.4856893 72.2876347,72.8519419 71.4349507,72.8519419 C70.5822667,72.8519419 69.5641065,73.4856893 68.3804699,74.7531842 C68.2736617,73.8252718 68.2736617,73.1031634 68.3804699,72.5868591 C68.487278,72.0705548 68.7757523,71.3981948 69.2458929,70.569779 C68.3952014,70.0211956 67.6567519,69.7093296 67.0305443,69.6341811 C66.4043367,69.5590326 65.4758552,69.6544439 64.2450997,69.9204151 L64.2450997,68.0338008 C62.1927666,66.81405 60.7773445,65.6397912 59.9988336,64.5110243 C59.2203227,63.3822574 58.5535635,61.537551 57.9985559,58.9769052 C62.4903959,59.5512855 65.5010587,59.3984656 67.0305443,58.5184453 C68.0086813,57.9556545 68.9561022,56.9196738 69.6430261,55.22215 C69.9011593,54.5842521 70.2037993,53.4284139 70.5509462,51.7546355 Z" id="Path-7"></path>
                <path d="M52.6571411,58.0470262 L56.2521305,58.7966401 C56.9919394,60.7676787 57.5740811,62.2408851 57.9985559,63.2162593 C58.4230306,64.1916335 58.856524,65.0521925 59.2990362,65.7979361 C58.8028097,66.0248345 58.3693163,66.1382837 57.9985559,66.1382837 C57.6277955,66.1382837 57.0456537,66.0248345 56.2521305,65.7979361 C55.1432787,65.0094041 54.372579,64.1488451 53.9400316,63.2162593 C53.6642682,62.6217047 53.2604359,61.640908 52.9886697,60.4037645 C52.8856621,59.9348497 52.7751526,59.1492703 52.6571411,58.0470262 Z" id="Path-8"></path>
                <path d="M46.1195278,56.142996 C47.2796667,56.4835539 48.154786,56.7491397 48.7448859,56.9397534 C49.3349858,57.130367 50.1467319,57.4096712 51.1801241,57.777666 C51.5264631,59.7650365 51.8299379,61.2033661 52.0905484,62.092655 C52.3511589,62.9819438 52.7424244,64.0029866 53.2643447,65.1557832 C51.2865015,65.3382579 49.8826494,64.9153094 49.0527884,63.8869378 C48.5608472,63.2773198 47.5265512,62.3502079 46.9176135,60.642031 C46.6387561,59.8597869 46.3727275,58.3601086 46.1195278,56.142996 Z" id="Path-9"></path>
                <path d="M40.7033849,54.2838228 L44.5491166,55.4609943 C44.8461558,57.371336 45.1347871,58.8198637 45.4150105,59.8065775 C45.6952339,60.7932913 46.1806775,62.0704113 46.8713411,63.6379375 C44.8655302,63.0128706 43.5104547,62.1662478 42.8061146,61.0980692 C42.3381973,60.3884415 42.0782845,60.177244 41.3658977,58.1990177 C41.1259344,57.5326636 40.9050968,56.2275987 40.7033849,54.2838228 Z" id="Path-10"></path>
                <path d="M39.3330547,44.6902705 L42.228295,44.8969422 C41.2876638,46.1342447 40.6548403,47.1750024 40.3298244,48.0192152 C40.0048086,48.863428 39.672552,50.329419 39.3330547,52.4171881 L35.6477162,51.7546355 C35.9341431,49.7745019 36.3392706,48.2823764 36.8630987,47.278259 C37.3869267,46.2741416 38.2102454,45.4114787 39.3330547,44.6902705 Z" id="Path-11"></path>
                <path d="M47.2674094,45.5941146 C46.9881075,45.3796428 46.6741707,45.2480108 46.325599,45.1992188 C45.9770273,45.1504267 45.3505825,45.1504267 44.4462647,45.1992188 C43.4701412,45.5265447 42.7308179,46.1747538 42.228295,47.1438459 C41.7257721,48.112938 41.2174687,49.9491009 40.7033849,52.6523346 L44.7259603,53.8462844 C45.0294874,51.3942758 45.3469963,49.6300908 45.678487,48.5537293 C46.0099778,47.4773678 46.5396186,46.4908296 47.2674094,45.5941146 Z" id="Path-12"></path>
                <path d="M34.7568848,65.5002698 C35.6689681,64.9057015 36.3985446,64.4995534 36.9456142,64.2818255 C37.4926839,64.0640976 38.3228916,63.8494683 39.4362374,63.6379375 C40.8006418,63.5810189 41.789706,63.5810189 42.4034301,63.6379375 C43.0171542,63.6948561 43.4784652,63.8293683 43.787363,64.041474 C44.9107178,64.6936716 45.6111568,65.3926082 45.8886798,66.1382837 C46.1662028,66.8839592 46.2431521,68.2737843 46.1195278,70.3077588 C44.9780351,71.6764309 44.2006468,72.6835598 43.787363,73.3291454 C43.3740792,73.974731 42.9127682,74.9025592 42.4034301,76.11263 C42.3232575,77.0260337 42.3232575,77.6460997 42.4034301,77.972828 C42.6062729,78.7994756 43.1671814,79.2535129 43.4695497,79.4446364 C43.8219962,79.6674138 44.3951328,79.8522648 45.2515187,79.4446364 C45.4607858,79.3450281 45.8189656,79.0608418 46.3260582,78.5920775 C47.1893388,77.5213554 47.8908998,76.8254588 48.4307412,76.5043876 C48.9705826,76.1833164 49.8128334,75.9610296 50.9574936,75.837527 C50.5754013,76.7131496 50.3715874,77.3054553 50.3460517,77.614444 C50.3093041,78.0591002 50.5647199,78.3797272 50.7088753,78.5920775 C51.0032898,79.0257692 51.8551129,79.3099555 53.2643447,79.4446364 C53.8797048,79.9874534 54.2562767,80.4255973 54.3940606,80.7590682 C54.5318446,81.0925391 54.5318446,81.4961356 54.3940606,81.9698579 C53.0178893,81.686351 52.1881408,81.7720304 51.9048153,82.2268963 C51.7250863,82.5154427 51.1418956,83.0093049 51.1901906,83.9349227 C51.2087489,84.2906093 51.4469571,84.9677098 51.9048153,85.9662244 C51.7168672,86.051253 51.478659,86.051253 51.1901906,85.9662244 C50.9017223,85.8811958 50.4023041,85.6637738 49.6919363,85.3139585 C47.7215294,85.830228 46.2413902,86.04765 45.2515187,85.9662244 C44.2616472,85.8847988 42.907361,85.4342206 41.18866,84.6144898 C40.3643888,85.2616527 39.6208811,85.5852342 38.958137,85.5852342 C38.2953928,85.5852342 37.2888253,85.2616527 35.9384343,84.6144898 L34.1233979,85.0855481 C34.3805754,84.5649754 34.5917377,84.1814337 34.7568848,83.9349227 C34.9220319,83.6884118 35.153249,83.4116249 35.4505361,83.1045619 C37.2805517,81.7471725 38.334322,80.5271974 38.6118471,79.4446364 C38.8055448,78.6890667 38.9381073,76.6421808 38.6118471,75.0987141 C38.5357053,74.7385035 38.2783154,74.032452 37.9080918,73.7408047 C37.5917744,73.4916226 37.1719411,73.6152028 36.9456142,73.7408047 C36.6181317,73.9225439 36.1197723,74.3751804 35.4505361,75.0987141 C35.3010181,74.8712902 35.2262591,74.6307346 35.2262591,74.3770473 C35.2262591,74.1233599 35.3010181,73.6822052 35.4505361,73.0535832 C36.5365739,71.7038191 37.0349332,70.5426306 36.9456142,69.5700175 C36.8562953,68.5974045 36.1267188,67.2408219 34.7568848,65.5002698 Z" id="Path-13"></path>
                <path d="M39.2748946,53.8462844 C39.3399813,55.5914415 39.521732,56.9691874 39.8201466,57.9795221 C40.1185611,58.9898568 40.7486989,60.3609011 41.7105598,62.092655 L37.9752277,62.092655 C35.8948711,62.8265275 34.2947392,63.7523629 33.1748317,64.8701612 C32.0549243,65.9879595 30.7480601,67.9636455 29.2542391,70.7972192 C27.3962792,71.0638532 26.1184967,71.353617 25.4208917,71.6665108 C23.4099105,72.5684876 22.2422215,73.9695497 21.8205148,74.4491344 C20.6184921,75.8161313 19.7361657,77.6433828 19.9532832,78.1027584 C20.0568202,78.321821 20.2755822,79.6620591 21.6752726,79.1327554 C21.998132,79.0106635 22.736628,78.4798188 23.4752465,77.7940382 C23.9007791,77.3989465 24.257389,76.8581905 24.7115494,76.5563684 C25.6591659,75.9266093 26.6391957,75.9456456 26.8942315,76.0073656 C27.2871824,76.1024619 27.831545,76.3812233 28.5273194,76.8436497 C27.4385941,77.3095448 26.8942315,77.7292477 26.8942315,78.1027584 C26.8942315,78.3277554 26.8164585,79.0742982 27.350916,79.4889957 C28.1473133,80.1069383 29.6825542,80.4243147 29.8578595,80.6980247 C30.4276687,81.5876864 30.6150586,82.4158776 30.4200292,83.1825983 C29.5801939,82.6981043 29.0105688,82.4569606 28.7111539,82.4591672 C27.7968281,82.4659054 27.3379326,83.2381871 27.1038351,83.4780082 C26.7547474,83.8356309 26.8371077,84.7852113 27.350916,86.3267496 C26.8707297,86.2910611 26.5311383,86.2409312 26.3321419,86.17636 C25.8282115,86.0128426 25.4464791,85.7048459 24.9840923,85.7048459 C24.4575417,85.7048459 23.9863455,86.1656883 22.8068533,86.3267496 C21.5124258,86.5035054 19.5112081,86.3797957 19.1170232,86.3267496 C18.1020546,86.1901635 16.8714915,85.5319951 16.2231108,85.5319951 C15.3490972,85.5319951 14.5413366,86.0010286 13.3037849,86.0299959 C12.1420669,86.0571881 10.5400731,85.6422502 9.98062525,85.7048459 C9.21034866,85.7910309 8.45431987,86.1185822 7.71253886,86.6875 C7.79086549,85.542805 8.21707432,84.5299183 8.99116535,83.6488398 C10.0151576,82.4833212 12.2205786,81.1487137 13.5889699,79.9116457 C15.0191816,78.6186901 15.5968026,77.4360704 15.8812621,76.8436497 C16.7465005,75.041688 15.9824031,74.2435162 13.5889699,74.4491344 C13.7727882,73.7538375 14.0816918,73.2335983 14.5156808,72.8884169 C15.270087,72.2883856 16.5158975,71.8290268 17.392637,71.2414893 C18.2524599,70.6652883 18.746967,69.9606251 19.1170232,69.4009152 C20.1900234,67.7780026 21.214861,65.123616 22.1915361,61.4377553 C23.1914626,59.6104272 24.031467,58.3288215 24.7115494,57.5929383 C25.9390546,56.2647161 27.7984064,55.0096471 28.8552153,54.5400244 C30.7902897,53.6801196 34.2635162,53.4488729 39.2748946,53.8462844 Z" id="Path-14"></path>
                <path d="M16.5807594,39.5106831 L15.860281,41.6095453 C16.3923681,42.3970553 16.8195891,42.9022269 17.1419442,43.1250601 C17.6798051,43.4968651 18.5127957,43.5865459 18.873486,43.6345443 C19.465802,43.7133659 21.2771071,42.9628951 22.2417376,41.6095453 C22.9503403,40.6153954 22.9584772,39.0481701 22.9249854,38.5005349 C22.883594,37.8237316 22.1937302,35.8065536 20.9047581,34.6832938 C19.7309473,33.66039 17.978597,33.4944655 17.3651233,33.4944655 C16.7826451,33.4944655 14.7899435,33.6758566 13.3434255,34.8475361 C11.5934915,36.2649826 10.3812939,38.81819 10.0432588,40.1911697 C9.73442415,41.4455476 9.05181303,44.7411663 9.90728714,47.944524 C10.7621793,51.1457025 13.154722,54.2547309 14.1237905,55.185107 C14.85322,55.8854123 16.8058385,57.4740035 18.2681224,58.3017109 C19.0206869,58.7276905 20.082317,59.1297607 21.4530128,59.5079214 C23.5372893,56.6773419 25.3541356,54.7901295 26.9035517,53.8462844 C28.4529678,52.9024393 30.8595832,52.21688 34.1233979,51.7896065 C34.5118229,50.0497479 34.8718405,48.7680537 35.2034507,47.944524 C35.5350609,47.1209943 36.1279383,46.0362431 36.9820829,44.6902705 C34.3036751,44.3655382 32.024355,44.4147297 30.1441228,44.8378449 C28.4990299,45.2080459 25.653368,47.1587972 22.7620698,47.944524 C20.6965243,48.5058477 18.9551307,47.9333362 18.4716754,47.7042517 C17.8990281,47.4329038 16.3850983,46.5168315 15.6083856,45.1626247 C14.8114779,43.7732077 14.7593978,41.9409858 14.799124,41.3429393 C14.8376299,40.7632629 15.2884936,39.2887599 15.860281,38.5005349 C16.4533591,37.6829602 17.1729402,37.5617841 17.4933333,37.5617841 C17.7868132,37.5617841 18.8346611,37.6953087 19.1142175,38.2215794 C19.4340906,38.823747 18.9537102,39.8362222 18.714127,39.9688653 C18.5300689,40.0707675 18.3197455,40.3301003 17.8242399,40.1911697 C17.6173868,40.133172 17.2028933,39.9063431 16.5807594,39.5106831 Z" id="Path-15"></path>
                <path d="M-2.84217094e-14,25.154101 C2.1749313,24.7375997 4.05910071,24.8373511 5.65250822,25.4533552 C6.59784868,25.8188195 8.136947,26.5783655 9.6797283,27.617354 C10.3848187,28.0921983 11.484496,28.9436238 12.9787601,30.1716305 C12.4272879,30.5155617 12.0121279,30.8054215 11.7332802,31.0412099 C11.4544324,31.2769983 11.2343002,31.5243297 11.0728835,31.7832041 L12.6808389,33.753159 L11.294063,35.2033467 L9.36619222,33.2893769 L7.55076783,35.2033467 C6.81086928,32.4307474 5.93405367,30.3698642 4.92032101,29.020697 C3.90658836,27.6715297 2.26648135,26.3826644 -2.84217094e-14,25.154101 Z" id="Path-16"></path>
                <path d="M26.3467356,0 C29.7286365,1.307813 32.031803,2.27849796 33.2562351,2.91205487 C34.8241305,3.72332974 39.1941881,6.42606838 43.0102136,10.1174913 C46.7157392,13.7020223 49.8523786,18.2202533 52.4668686,22.7485798 C54.2469007,25.8316158 56.6566079,31.5401453 59.6959901,39.8741684 C59.933162,40.2116098 60.1431363,40.4626131 60.325913,40.6271783 C60.5086897,40.7917435 60.757385,40.9537089 61.0719989,41.1130744 C59.8679903,37.2754852 59.0747477,34.0671286 58.6922709,31.4880045 C58.3097941,28.9088804 58.2471377,26.345724 58.5043019,23.7985353 C59.532088,24.3103852 60.2865257,24.7219348 60.7676149,25.0331843 C61.2487042,25.3444337 61.8032463,25.7797524 62.4312414,26.3391405 C63.845051,31.1124659 64.8678778,34.5160235 65.4997219,36.5498132 C67.0370705,41.4982545 68.4266585,45.5451827 68.8595206,48.2523692 C69.3538064,51.3437093 69.0789342,55.186348 66.8450851,56.7316508 C64.3355249,58.4676813 59.7007568,57.6989056 57.6596835,57.3839922 C55.0877464,56.9871727 51.2410278,55.953783 46.1195278,54.2838228 C46.3692579,51.6494234 46.6198623,49.9142842 46.8713411,49.0784051 C47.2990797,47.6566636 48.0396872,47.1909435 48.5678954,46.5011935 C49.5619249,45.2031602 51.538426,44.3097905 54.4973986,43.8210844 C53.8587063,43.3757086 53.105648,43.2165972 52.2382237,43.34375 C51.3707993,43.4709028 50.1473566,43.919743 48.5678954,44.6902705 C46.6788729,43.3360116 45.1513735,42.5827026 43.9853972,42.4303435 C42.8194209,42.2779844 40.9662345,42.7415647 38.4258381,43.8210844 C36.2232812,41.1825712 34.2814969,39.6236143 32.6004853,39.1442137 C30.9194737,38.6648131 28.5504727,38.991293 25.4934823,40.1236532 C24.5600053,36.1780617 23.483076,33.585833 22.2626942,32.3469674 C21.0423124,31.1081017 18.6157233,30.1635113 14.9829269,29.5131961 C17.1140169,26.361587 18.0158985,23.9677539 17.6885718,22.3316968 C17.3612452,20.6956397 15.6018093,18.9978433 12.4102642,17.2383077 C15.4271907,16.0769476 16.8356335,14.8552191 16.6355927,13.5731224 C16.4355518,12.2910258 14.5477458,10.4404326 10.9721747,8.02134285 C15.5257156,9.01663277 18.71826,9.77078212 20.5498077,10.2837909 C24.8270127,11.4818179 28.0422178,12.7732611 30.0169194,13.5731224 C32.3544884,14.5199648 38.5113843,17.1625248 45.6665986,23.7985353 C46.7916186,24.8419205 48.6223689,26.6472333 50.3518393,28.9137685 C51.1124726,29.9106066 52.2504547,31.6219146 53.7657855,34.0476926 C53.4697439,33.1642881 53.1990397,32.4829437 52.953673,32.0036594 C52.0842459,30.3053737 50.9788307,28.6724169 50.3518393,27.7443725 C49.0213891,25.7751001 46.4314078,22.3949767 42.7280082,19.2606965 C39.1258643,16.2121118 34.4232556,13.39609 32.1082635,12.3385995 C30.5687632,11.6353544 27.8049056,10.5911665 23.8166909,9.20603599 C27.4529449,8.30360058 29.4228476,7.30011896 29.726399,6.19559112 C30.0299503,5.09106327 28.9033959,3.02586623 26.3467356,0 Z M36.1831597,30.7577192 C34.531182,31.1689587 32.3316738,32.4920405 29.5846351,34.7269646 C33.0797737,32.466328 36.0312553,31.360396 38.4390799,31.4091685 C39.9342434,31.4394544 42.6832583,31.7258974 44.760185,32.6669489 C45.6053681,33.0498997 46.6605349,33.8604096 47.9256855,35.0984786 C46.0832863,35.4451816 44.6425164,35.8908865 43.603376,36.4355935 C42.5642356,36.9803005 41.7307472,37.726739 41.1029107,38.6749088 C43.6607179,37.2221819 45.7155508,36.4757435 47.2674094,36.4355935 C48.819268,36.3954436 50.6714541,37.0407989 52.8239676,38.3716595 C51.5077124,35.901035 50.3050023,34.2753037 49.2158371,33.4944655 C47.8044448,32.4826182 46.0649394,31.317505 44.4663284,30.7577192 C43.6754457,30.4807757 39.2891642,29.9845177 36.1831597,30.7577192 Z M21.9210478,17.6109879 C26.2983092,18.9826271 29.4364703,20.0542871 31.3355311,20.8259677 C33.2345919,21.5976483 34.4750405,22.3052301 35.0568769,22.9487131 C31.847268,23.0048462 29.1948985,23.2082983 27.0997684,23.5590695 C25.0046383,23.9098407 23.2783981,24.4394647 21.9210478,25.1479417 C23.5291757,24.8343142 24.8932946,24.6282344 26.0134044,24.5297022 C27.6514461,24.3856094 33.1344091,24.0352278 37.8169827,24.8280875 C39.3205121,25.0826671 41.1547122,25.7981321 43.3195829,26.9744823 C41.8589226,25.7699202 40.6995418,24.8777275 39.8414404,24.2979043 C37.8576385,22.9574399 35.465688,21.6113745 33.6707859,20.8259677 C30.7112958,19.5309646 26.7947164,18.4593047 21.9210478,17.6109879 Z" id="Combined-Shape"></path>
            </g>
        </g>
    </g>
</svg>