<?xml version="1.0" encoding="UTF-8"?>
<svg width="149px" height="149px" viewBox="0 0 149 149" version="1.1" xmlns="http://www.w3.org/2000/svg" xmlns:xlink="http://www.w3.org/1999/xlink">
    <!-- Generator: Sketch 58 (84663) - https://sketch.com -->
    <title>Group 7</title>
    <desc>Created with Sketch.</desc>
    <g id="Black-and-White" stroke="none" stroke-width="1" fill="none" fill-rule="evenodd">
        <g id="Desktop-HD" transform="translate(-1008.000000, -1616.000000)">
            <g id="Group-8" transform="translate(78.000000, 1617.000000)">
                <g id="Group-7" transform="translate(931.000000, 0.000000)">
                    <g id="Group-4">
                        <circle id="Oval" stroke="#000000" stroke-width="2" fill="#FFFFFF" cx="73.5" cy="73.5" r="73.5"></circle>
                        <path d="M84.8037276,74 C84.311341,74 83.8218734,73.7961192 83.4861552,73.3995802 C82.8915933,72.7009608 82.9986338,71.6712688 83.7265101,71.0998411 C83.8831786,70.9773255 84.0145466,70.826753 84.1186678,70.65467 L100.355754,42.7379514 C100.594162,42.3404772 100.655468,41.8999822 100.537723,41.4791273 C100.419978,41.0573369 100.138753,40.704754 99.7446494,40.4859093 C98.9321139,40.0313859 97.8909006,40.3044741 97.4228413,41.0844587 L83.1864416,65.5613885 C82.7281131,66.3469846 81.6907923,66.6275547 80.8714452,66.1898654 C80.0511249,65.7493704 79.758223,64.7533468 80.2165514,63.9649452 L94.4656014,39.4693107 C95.883403,37.1106518 99.0089885,36.3026101 101.445622,37.6549575 C102.626961,38.3105564 103.470635,39.3692406 103.823869,40.6336763 C104.177103,41.8990471 103.995134,43.2205319 103.312994,44.3549702 L87.0768807,72.2698182 C86.754786,72.8057069 86.3567894,73.2564893 85.8799723,73.6315181 C85.5637161,73.8793549 85.1822623,74 84.8037276,74 L84.8037276,74 Z" id="Path" fill="#000000" fill-rule="nonzero"></path>
                        <path d="M63.9591793,107 C63.556842,107 63.1673064,106.843335 62.8710399,106.563575 L53.509382,97.684934 C53.1820259,97.3725356 52.9973163,96.9370432 53.0000295,96.4801022 C53.0037172,96.0231615 53.193913,95.5886013 53.5258414,95.2827306 L63.0557491,86.4852204 L61.5323539,69.8199344 C61.5250387,66.5430158 64.01953,64 67.0836945,64 L81.534919,64 C84.5999978,64 87.0935748,66.5430158 87.0935748,69.6688643 C87.0935748,69.724816 87.0899172,69.7817007 87.0853452,69.8376526 L85.6094987,84.3543838 L94.0220061,87.9651491 C94.8001631,88.2989958 95.1887846,89.1923619 94.9098915,90.0055302 L91.1919291,100.849949 C91.04471,101.281711 90.7255834,101.629546 90.3131876,101.809525 C89.9017064,101.989503 89.4344464,101.986706 89.0247939,101.796469 L74.9804784,95.3116392 L65.1488175,106.460064 C64.8616951,106.784585 64.4593578,106.978552 64.0314172,106.998135 C64.0067283,107 63.9829539,107 63.9591793,107 L63.9591793,107 Z M56.9621677,96.5071456 L63.8576807,103.047928 L73.3866742,92.2445403 C73.8521052,91.7176593 74.5973437,91.5600614 75.2337682,91.8500791 L88.7523019,98.0915181 L91.3976697,90.3748127 L83.2777712,86.8890069 C82.6294595,86.6101796 82.2362661,85.9322288 82.308504,85.2179089 L83.8968219,69.5951942 C83.8575028,68.2999066 82.8141688,67.2592007 81.534919,67.2592007 L67.0836945,67.2592007 C65.78067,67.2592007 64.7217915,68.3400055 64.7217915,69.6688643 L66.3119381,86.9934505 C66.3585727,87.5044782 66.1674626,88.0089782 65.7934718,88.3530826 L56.9621677,96.5071456 Z" id="Shape" fill="#000000" fill-rule="nonzero"></path>
                        <path d="M106.380599,42 L41.6184742,42 C40.7244688,42 40,41.1061517 40,40.0005722 C40,38.894993 40.7244688,38 41.6184742,38 L106.380599,38 C107.275531,38 108,38.894993 108,40.0005722 C108,41.1061517 107.275531,42 106.380599,42 Z" id="Path" fill="#000000" fill-rule="nonzero"></path>
                    </g>
                    <g id="gym" transform="translate(25.000000, 25.000000)" fill="#000000" fill-rule="nonzero">
                        <path d="M49,38 C43.4859814,38 39,33.5147584 39,28.0004769 C39,22.4861952 43.4859814,18 49,18 C54.5140186,18 59,22.4861952 59,28.0004769 C59,33.5147584 54.5140186,38 49,38 Z M49,21.3331744 C45.3246234,21.3331744 42.3330153,24.3230176 42.3330153,28.0004769 C42.3330153,31.6769824 45.3246234,34.6668256 49,34.6668256 C52.6753766,34.6668256 55.6660309,31.6769824 55.6660309,28.0004769 C55.6660309,24.3230176 52.6753766,21.3331744 49,21.3331744 Z" id="Shape"></path>
                        <path d="M15.729902,100 C14.5373633,100 13.3466315,99.5478592 12.4296415,98.6444911 C11.5234926,97.7511708 11.0157604,96.5555099 11.0004017,95.2758145 C10.98414,93.9970327 11.4620588,92.7894974 12.3456217,91.8724282 L29.58142,73.4981607 C30.1822065,72.8587698 31.1814096,72.8304539 31.8129131,73.4387888 C32.4462234,74.0452967 32.472423,75.0555342 31.8725399,75.6958387 L14.621383,94.0865475 C13.9980106,94.731419 14.0106588,95.7453102 14.6340312,96.3591254 C15.2565002,96.9747677 16.25751,96.9592394 16.867331,96.3308095 L34.2756861,77.7720322 C34.8755692,77.1335547 35.8756756,77.1052387 36.5071792,77.7135736 C37.1404895,78.3200816 37.1666891,79.3303191 36.566806,79.9706235 L19.1421891,98.5449288 C18.2053233,99.5140627 16.9667094,100 15.729902,100 L15.729902,100 Z" id="Path"></path>
                        <path d="M39.1874534,49 C38.8069678,49 38.4235631,48.878401 38.1073028,48.6277194 C37.6372913,48.255439 37.2431823,47.8073929 36.9356797,47.2966765 L20.6740603,19.3372896 C19.2795953,17.0156812 20.1174421,14.0103112 22.5531333,12.6558837 C24.9917436,11.3042624 28.1173687,12.1086876 29.5235107,14.452745 L43.7834459,38.9708761 C44.2417801,39.760335 43.9488742,40.7555773 43.1285438,41.1961404 C42.3082131,41.6367036 41.2737984,41.3560901 40.8144911,40.5675663 L26.5652603,16.068143 C26.1088723,15.308616 25.0647268,15.0429686 24.253154,15.4882086 C23.4415814,15.939061 23.1632722,16.940851 23.6313375,17.7218915 L39.8919841,45.6803432 C39.9834564,45.830939 40.1138529,45.9805995 40.2676039,46.1021988 C40.9935431,46.6765208 41.0976658,47.706372 40.500177,48.4041642 C40.1644545,48.797023 39.6779002,49 39.1874534,49 Z" id="Path"></path>
                        <path d="M73.7803344,99 C73.5111988,99 73.2401813,98.9797993 72.9653997,98.9348065 C71.6648921,98.7226975 70.5271833,98.0303592 69.7611823,96.9835879 C68.9961225,95.9386531 68.6931097,94.6623265 68.9104884,93.3951823 L71.5707888,77.8148175 L65.9772885,75.3888791 C65.1472973,75.0289367 64.7727662,74.0804148 65.1425922,73.2705445 C65.5114771,72.4597557 66.4826232,72.0933859 67.3135554,72.4551647 L74.0711135,75.3861244 C74.7552446,75.6836278 75.1485963,76.3952487 75.0243799,77.1160518 L72.1551703,93.9213226 C72.0827108,94.3446224 72.1834014,94.7706767 72.4393624,95.118682 C72.6934412,95.4685242 73.0736185,95.6980792 73.5074347,95.7687824 C74.4136496,95.9166158 75.25211,95.3142632 75.3989112,94.4492994 L78.6878217,75.1951345 C78.8110968,74.472495 78.4196271,73.7608743 77.734555,73.4652072 L67.6062167,69.0724405 C66.7762255,68.7124981 66.4016945,67.7639764 66.7715204,66.9541058 C67.1404053,66.1433173 68.1124924,65.7787836 68.9424834,66.1387261 L79.0708219,70.5314928 C81.1250971,71.4230849 82.3023295,73.5579474 81.9325036,75.7221932 L78.6435931,94.9781944 C78.2436541,97.3095562 76.1987891,99 73.7803344,99 L73.7803344,99 Z" id="Path"></path>
                        <path d="M15.3996338,29 L10.6003662,29 C9.71595341,29 9,28.2800013 9,27.3894524 L9,1.61146963 C9,0.720920741 9.71595341,0 10.6003662,0 L15.3996338,0 C16.2840466,0 17,0.720920741 17,1.61146963 L17,27.3894524 C17,28.2800013 16.2840466,29 15.3996338,29 Z M12.1998169,25.7779826 L13.8001831,25.7779826 L13.8001831,3.22201742 L12.1998169,3.22201742 L12.1998169,25.7779826 Z" id="Shape"></path>
                        <path d="M11.4005493,29 L6.60036643,29 C5.7168689,29 5,28.2800013 5,27.3894524 L5,1.61146963 C5,0.720920741 5.7168689,0 6.60036643,0 L11.4005493,0 C12.2840468,0 13,0.720920741 13,1.61146963 L13,27.3894524 C13,28.2800013 12.2840468,29 11.4005493,29 Z M8.1998169,25.7779826 L9.8001831,25.7779826 L9.8001831,3.22201742 L8.1998169,3.22201742 L8.1998169,25.7779826 Z" id="Shape"></path>
                        <path d="M92.3996336,29 L87.5994507,29 C86.7159532,29 86,28.2800013 86,27.3894524 L86,1.61146963 C86,0.720920741 86.7159532,0 87.5994507,0 L92.3996336,0 C93.2831311,0 94,0.720920741 94,1.61146963 L94,27.3894524 C94,28.2800013 93.2831311,29 92.3996336,29 Z M89.1998169,25.7779826 L90.8001831,25.7779826 L90.8001831,3.22201742 L89.1998169,3.22201742 L89.1998169,25.7779826 Z" id="Shape"></path>
                        <path d="M86.3996338,29 L81.5994507,29 C80.7159534,29 80,28.2800013 80,27.3894524 L80,1.61146963 C80,0.720920741 80.7159534,0 81.5994507,0 L86.3996338,0 C87.2831311,0 88,0.720920741 88,1.61146963 L88,27.3894524 C88,28.2800013 87.2831311,29 86.3996338,29 L86.3996338,29 Z M83.1998169,25.7779826 L84.8001831,25.7779826 L84.8001831,3.22201742 L83.1998169,3.22201742 L83.1998169,25.7779826 Z" id="Shape"></path>
                        <path d="M6.40054948,17 L1.60036624,17 C0.716868918,17 0,16.1061517 0,15.0005722 C0,13.894993 0.716868918,13 1.60036624,13 L6.40054948,13 C7.2840468,13 8,13.894993 8,15.0005722 C8,16.1061517 7.2840468,17 6.40054948,17 Z" id="Path"></path>
                        <path d="M95.3996338,17 L90.5994505,17 C89.7159532,17 89,16.1061517 89,15.0005722 C89,13.894993 89.7159532,13 90.5994505,13 L95.3996338,13 C96.2831311,13 97,13.894993 97,15.0005722 C97,16.1061517 96.2831311,17 95.3996338,17 L95.3996338,17 Z" id="Path"></path>
                    </g>
                </g>
            </g>
        </g>
    </g>
</svg>